M48
;DRILL file {Pcbnew (2013-may-18)-stable} date Thu 08 Oct 2015 06:06:08 PM EEST
;FORMAT={-:-/ absolute / metric / decimal}
FMAT,2
METRIC,TZ
T1C0.700
T2C0.813
%
G90
G05
M71
T1
X153.9Y-77.2
X157.4Y-77.4
X158.5Y-116.1
X161.482Y-105.789
X166.298Y-69.717
X167.369Y-103.94
X168.142Y-78.016
X168.761Y-109.15
X170.621Y-89.05
X172.742Y-108.455
X173.319Y-113.975
X173.37Y-100.373
X173.499Y-127.208
X174.702Y-72.126
X175.585Y-83.317
X175.626Y-102.078
X175.919Y-113.171
X177.675Y-107.087
X178.112Y-94.572
X178.973Y-90.208
X179.105Y-83.929
X180.775Y-108.9
X181.874Y-72.913
X182.169Y-100.407
X183.061Y-121.361
X183.589Y-72.083
X185.702Y-93.338
X186.375Y-104.571
X188.151Y-76.074
X188.96Y-100.684
X189.103Y-94.786
X190.122Y-73.103
X191.244Y-94.539
X191.446Y-75.965
X192.626Y-92.975
X193.993Y-85.07
X194.1Y-82.804
X194.752Y-80.366
X194.945Y-69.723
X196.828Y-94.2
T2
X155.33Y-67.5
X156.6Y-103.23
X156.6Y-105.77
X157.87Y-67.5
X160.63Y-71.9
X162.13Y-67.5
X163.17Y-71.9
X163.4Y-103.23
X163.4Y-105.77
X164.67Y-67.5
X166.03Y-75.2
X168.57Y-75.2
X168.93Y-67.5
X169.83Y-80.3
X170.2Y-103.23
X170.2Y-105.77
X171.47Y-67.5
X172.37Y-80.3
X172.8Y-84.73
X172.8Y-87.27
X175.83Y-67.5
X175.83Y-73.7
X175.83Y-79.8
X175.83Y-86.
X175.83Y-92.2
X175.83Y-98.3
X175.83Y-104.5
X175.83Y-110.7
X175.83Y-116.8
X175.83Y-123.
X175.83Y-129.2
X175.83Y-135.3
X178.37Y-67.5
X178.37Y-73.7
X178.37Y-79.8
X178.37Y-86.
X178.37Y-92.2
X178.37Y-98.3
X178.37Y-104.5
X178.37Y-110.7
X178.37Y-116.8
X178.37Y-123.
X178.37Y-129.2
X178.37Y-135.3
X181.4Y-122.73
X181.4Y-125.27
X182.63Y-67.5
X183.1Y-116.03
X183.1Y-118.57
X183.9Y-103.23
X183.9Y-105.77
X185.17Y-67.5
X186.9Y-110.93
X186.9Y-113.47
X189.43Y-67.5
X190.7Y-103.23
X190.7Y-105.77
X191.97Y-67.5
X192.3Y-107.63
X192.3Y-110.17
X196.33Y-67.5
X197.6Y-103.23
X197.6Y-105.77
X198.87Y-67.5
T0
M30
