G04 (created by PCBNEW (2013-may-18)-stable) date Thu 08 Oct 2015 06:06:15 PM EEST*
%MOIN*%
G04 Gerber Fmt 3.4, Leading zero omitted, Abs format*
%FSLAX34Y34*%
G01*
G70*
G90*
G04 APERTURE LIST*
%ADD10C,0.00590551*%
%ADD11R,0.05X0.02*%
%ADD12R,0.06X0.08*%
%ADD13R,0.1X0.1*%
%ADD14C,0.066*%
%ADD15R,0.06X0.06*%
%ADD16R,0.0393701X0.0275591*%
%ADD17R,0.1004X0.0984*%
%ADD18R,0.0709X0.1457*%
%ADD19C,0.0590551*%
%ADD20C,0.019685*%
G04 APERTURE END LIST*
G54D10*
G54D11*
X71557Y-35765D03*
X71557Y-35265D03*
X71557Y-34765D03*
X71557Y-34265D03*
X71557Y-33765D03*
X71557Y-33265D03*
X71557Y-32765D03*
X71557Y-32265D03*
X71557Y-31765D03*
X71557Y-31265D03*
X75357Y-31265D03*
X75357Y-31765D03*
X75357Y-32265D03*
X75357Y-32765D03*
X75357Y-33265D03*
X75357Y-33765D03*
X75357Y-34265D03*
X75357Y-34765D03*
X75357Y-35265D03*
X75357Y-35765D03*
G54D12*
X76573Y-44740D03*
X75273Y-44740D03*
X76397Y-46039D03*
X75097Y-46039D03*
X74876Y-27912D03*
X73576Y-27912D03*
X76320Y-25717D03*
X75020Y-25717D03*
G54D13*
X62202Y-32223D03*
X62202Y-37223D03*
X64202Y-32223D03*
X64202Y-37223D03*
G54D14*
X69224Y-43582D03*
X70224Y-43582D03*
X71901Y-26574D03*
X72901Y-26574D03*
X77795Y-41641D03*
X77795Y-40641D03*
X75078Y-41641D03*
X75078Y-40641D03*
X64330Y-41641D03*
X64330Y-40641D03*
X61653Y-41641D03*
X61653Y-40641D03*
X71417Y-49318D03*
X71417Y-48318D03*
X69224Y-53267D03*
X70224Y-53267D03*
X69224Y-50866D03*
X70224Y-50866D03*
X75708Y-43374D03*
X75708Y-42374D03*
X73582Y-44673D03*
X73582Y-43673D03*
X72086Y-46681D03*
X72086Y-45681D03*
X69224Y-48425D03*
X70224Y-48425D03*
X69224Y-45984D03*
X70224Y-45984D03*
X69224Y-41141D03*
X70224Y-41141D03*
X69224Y-26574D03*
X70224Y-26574D03*
X66507Y-26574D03*
X67507Y-26574D03*
X69224Y-29015D03*
X70224Y-29015D03*
X77295Y-26574D03*
X78295Y-26574D03*
X74578Y-26574D03*
X75578Y-26574D03*
X63830Y-26574D03*
X64830Y-26574D03*
X61153Y-26574D03*
X62153Y-26574D03*
X68031Y-34358D03*
X68031Y-33358D03*
X69224Y-38700D03*
X70224Y-38700D03*
X69224Y-36299D03*
X70224Y-36299D03*
X63240Y-28307D03*
X64240Y-28307D03*
X65366Y-29606D03*
X66366Y-29606D03*
X66862Y-31614D03*
X67862Y-31614D03*
X69224Y-33858D03*
X70224Y-33858D03*
X69224Y-31417D03*
X70224Y-31417D03*
X72401Y-41641D03*
X72401Y-40641D03*
X67007Y-41641D03*
X67007Y-40641D03*
G54D15*
X63177Y-44212D03*
X62177Y-44212D03*
X77740Y-30663D03*
X77740Y-31663D03*
X77740Y-32663D03*
X77740Y-33663D03*
X77740Y-34663D03*
X77740Y-35663D03*
G54D16*
X63818Y-47460D03*
X63818Y-46712D03*
X62799Y-47460D03*
X62799Y-47086D03*
X62799Y-46712D03*
G54D17*
X66949Y-45700D03*
X64961Y-45700D03*
X67416Y-48935D03*
X65428Y-48935D03*
G54D18*
X65632Y-47424D03*
X67246Y-47424D03*
X66622Y-44323D03*
X65008Y-44323D03*
G54D19*
X75837Y-36604D03*
X75372Y-29907D03*
X63575Y-41649D03*
X68235Y-44872D03*
X74851Y-28780D03*
X73111Y-36747D03*
X76749Y-27450D03*
X66197Y-30715D03*
X77491Y-37086D03*
X68780Y-28396D03*
X74393Y-39639D03*
X76674Y-31640D03*
X69950Y-42160D03*
X65471Y-27447D03*
X68306Y-50081D03*
X65893Y-40921D03*
X70122Y-37233D03*
X71603Y-28706D03*
X72279Y-28379D03*
X76417Y-32599D03*
X73375Y-41169D03*
X69127Y-32802D03*
X70513Y-33042D03*
X70461Y-35515D03*
X76375Y-33492D03*
X68256Y-39517D03*
X71720Y-39530D03*
X69259Y-44555D03*
X68008Y-42698D03*
X72071Y-47780D03*
X60590Y-30393D03*
X62401Y-45708D03*
X61968Y-30472D03*
X67173Y-35059D03*
X74449Y-37317D03*
X75293Y-37220D03*
X74075Y-29950D03*
X71171Y-42874D03*
X69144Y-40187D03*
X66441Y-42972D03*
G54D20*
X73498Y-30791D02*
X72024Y-32265D01*
X73498Y-29803D02*
X73498Y-30791D01*
X73863Y-29438D02*
X73498Y-29803D01*
X74339Y-29438D02*
X73863Y-29438D01*
X74808Y-29907D02*
X74339Y-29438D01*
X75372Y-29907D02*
X74808Y-29907D01*
X71557Y-32265D02*
X72024Y-32265D01*
X76397Y-46039D02*
X76914Y-46039D01*
X79004Y-43948D02*
X76914Y-46039D01*
X79004Y-39771D02*
X79004Y-43948D01*
X75837Y-36604D02*
X79004Y-39771D01*
X71557Y-34765D02*
X71090Y-34765D01*
X64330Y-41641D02*
X63770Y-41641D01*
X63583Y-41641D02*
X63575Y-41649D01*
X63770Y-41641D02*
X63583Y-41641D01*
X68113Y-35073D02*
X69276Y-33910D01*
X67969Y-35073D02*
X68113Y-35073D01*
X69224Y-33858D02*
X69276Y-33910D01*
X70986Y-34660D02*
X71090Y-34765D01*
X70027Y-34660D02*
X70986Y-34660D01*
X69276Y-33910D02*
X70027Y-34660D01*
X63770Y-39273D02*
X67969Y-35073D01*
X63770Y-41641D02*
X63770Y-39273D01*
X68235Y-47436D02*
X68235Y-44872D01*
X69224Y-48425D02*
X68235Y-47436D01*
X65247Y-32351D02*
X67969Y-35073D01*
X65247Y-31899D02*
X65247Y-32351D01*
X62689Y-29342D02*
X65247Y-31899D01*
X62689Y-27715D02*
X62689Y-29342D01*
X63830Y-26574D02*
X62689Y-27715D01*
X75028Y-28780D02*
X74851Y-28780D01*
X75395Y-28413D02*
X75028Y-28780D01*
X75395Y-27391D02*
X75395Y-28413D01*
X74578Y-26574D02*
X75395Y-27391D01*
X75357Y-34265D02*
X74890Y-34265D01*
X72647Y-46120D02*
X72086Y-46681D01*
X72647Y-43815D02*
X72647Y-46120D01*
X74820Y-41641D02*
X72647Y-43815D01*
X75078Y-41641D02*
X74820Y-41641D01*
X75629Y-41091D02*
X75078Y-41641D01*
X75629Y-40404D02*
X75629Y-41091D01*
X75306Y-40081D02*
X75629Y-40404D01*
X74675Y-40081D02*
X75306Y-40081D01*
X74605Y-40151D02*
X74675Y-40081D01*
X74167Y-40151D02*
X74605Y-40151D01*
X73494Y-39478D02*
X74167Y-40151D01*
X73494Y-36747D02*
X73494Y-39478D01*
X73494Y-35661D02*
X73494Y-36747D01*
X74890Y-34265D02*
X73494Y-35661D01*
X73494Y-36747D02*
X73111Y-36747D01*
X74524Y-26628D02*
X74578Y-26574D01*
X73852Y-26628D02*
X74524Y-26628D01*
X72791Y-27690D02*
X73852Y-26628D01*
X72791Y-28591D02*
X72791Y-27690D01*
X72491Y-28890D02*
X72791Y-28591D01*
X72297Y-28890D02*
X72491Y-28890D01*
X71207Y-29980D02*
X72297Y-28890D01*
X68495Y-29980D02*
X71207Y-29980D01*
X66862Y-31614D02*
X68495Y-29980D01*
X76167Y-34517D02*
X76618Y-34517D01*
X75920Y-34765D02*
X75357Y-34765D01*
X76167Y-34517D02*
X75920Y-34765D01*
X75357Y-34765D02*
X74890Y-34765D01*
X77491Y-36529D02*
X77491Y-37086D01*
X76618Y-35656D02*
X77491Y-36529D01*
X76618Y-34517D02*
X76618Y-35656D01*
X74188Y-44067D02*
X73582Y-44673D01*
X75794Y-44067D02*
X74188Y-44067D01*
X77795Y-42066D02*
X75794Y-44067D01*
X77795Y-41641D02*
X77795Y-42066D01*
X65366Y-29883D02*
X66197Y-30715D01*
X65366Y-29606D02*
X65366Y-29883D01*
X76749Y-27120D02*
X76749Y-27450D01*
X77295Y-26574D02*
X76749Y-27120D01*
X73907Y-37754D02*
X77795Y-41641D01*
X73907Y-35748D02*
X73907Y-37754D01*
X74890Y-34765D02*
X73907Y-35748D01*
X69224Y-28840D02*
X68780Y-28396D01*
X69224Y-29015D02*
X69224Y-28840D01*
X75357Y-32265D02*
X75824Y-32265D01*
X76071Y-32017D02*
X75824Y-32265D01*
X76674Y-32017D02*
X76071Y-32017D01*
X76674Y-32017D02*
X76674Y-31640D01*
X77223Y-32567D02*
X77223Y-32663D01*
X76674Y-32017D02*
X77223Y-32567D01*
X77740Y-32663D02*
X77223Y-32663D01*
X68588Y-28205D02*
X68780Y-28396D01*
X65003Y-28205D02*
X68588Y-28205D01*
X64557Y-27759D02*
X65003Y-28205D01*
X63788Y-27759D02*
X64557Y-27759D01*
X63240Y-28307D02*
X63788Y-27759D01*
X69950Y-42160D02*
X69950Y-42160D01*
X69950Y-42856D02*
X69950Y-42160D01*
X69224Y-43582D02*
X69950Y-42856D01*
X75310Y-39639D02*
X74393Y-39639D01*
X76268Y-40597D02*
X75310Y-39639D01*
X76268Y-42814D02*
X76268Y-40597D01*
X75708Y-43374D02*
X76268Y-42814D01*
X66720Y-40093D02*
X65893Y-40921D01*
X67556Y-40093D02*
X66720Y-40093D01*
X67556Y-37967D02*
X67556Y-40093D01*
X69224Y-36299D02*
X67556Y-37967D01*
X67556Y-41093D02*
X67007Y-41641D01*
X67556Y-40093D02*
X67556Y-41093D01*
X71038Y-35265D02*
X71557Y-35265D01*
X70774Y-35000D02*
X71038Y-35265D01*
X70251Y-35000D02*
X70774Y-35000D01*
X69224Y-36028D02*
X70251Y-35000D01*
X69224Y-36299D02*
X69224Y-36028D01*
X68440Y-50081D02*
X68306Y-50081D01*
X69224Y-50866D02*
X68440Y-50081D01*
X65634Y-27447D02*
X65471Y-27447D01*
X66507Y-26574D02*
X65634Y-27447D01*
X69224Y-38700D02*
X69224Y-39250D01*
X70790Y-37233D02*
X70122Y-37233D01*
X70467Y-39250D02*
X69224Y-39250D01*
X70790Y-38927D02*
X70467Y-39250D01*
X70790Y-37233D02*
X70790Y-38927D01*
X70790Y-36065D02*
X71090Y-35765D01*
X70790Y-37233D02*
X70790Y-36065D01*
X71557Y-35765D02*
X71090Y-35765D01*
X68632Y-40549D02*
X69224Y-41141D01*
X68632Y-39864D02*
X68632Y-40549D01*
X69224Y-39272D02*
X68632Y-39864D01*
X69224Y-39250D02*
X69224Y-39272D01*
X67794Y-51838D02*
X69224Y-53267D01*
X67794Y-49869D02*
X67794Y-51838D01*
X68136Y-49528D02*
X67794Y-49869D01*
X68136Y-48340D02*
X68136Y-49528D01*
X67830Y-48035D02*
X68136Y-48340D01*
X67830Y-46606D02*
X67830Y-48035D01*
X67718Y-46493D02*
X67830Y-46606D01*
X67718Y-44665D02*
X67718Y-46493D01*
X68023Y-44360D02*
X67718Y-44665D01*
X68023Y-43853D02*
X68023Y-44360D01*
X69224Y-42652D02*
X68023Y-43853D01*
X69224Y-41141D02*
X69224Y-42652D01*
X71355Y-28706D02*
X71603Y-28706D01*
X69224Y-26574D02*
X71355Y-28706D01*
X72903Y-41641D02*
X73375Y-41169D01*
X72401Y-41641D02*
X72903Y-41641D01*
X68677Y-33712D02*
X68031Y-34358D01*
X68677Y-33252D02*
X68677Y-33712D01*
X69127Y-32802D02*
X68677Y-33252D01*
X75357Y-32765D02*
X75824Y-32765D01*
X75989Y-32599D02*
X76417Y-32599D01*
X75824Y-32765D02*
X75989Y-32599D01*
X72183Y-41860D02*
X72401Y-41641D01*
X72183Y-43891D02*
X72183Y-41860D01*
X70869Y-45205D02*
X72183Y-43891D01*
X70869Y-48770D02*
X70869Y-45205D01*
X71417Y-49318D02*
X70869Y-48770D01*
X71901Y-28001D02*
X72279Y-28379D01*
X71901Y-26574D02*
X71901Y-28001D01*
X66299Y-29672D02*
X66366Y-29606D01*
X70224Y-33858D02*
X70224Y-33042D01*
X70224Y-31417D02*
X70224Y-31977D01*
X70224Y-31977D02*
X70224Y-33042D01*
X69011Y-31977D02*
X68442Y-31408D01*
X70224Y-31977D02*
X69011Y-31977D01*
X68236Y-31614D02*
X67862Y-31614D01*
X68442Y-31408D02*
X68236Y-31614D01*
X68031Y-32880D02*
X68031Y-33358D01*
X67313Y-32162D02*
X68031Y-32880D01*
X67862Y-31614D02*
X67313Y-32162D01*
X70224Y-35752D02*
X70461Y-35515D01*
X70224Y-36299D02*
X70224Y-35752D01*
X69610Y-38087D02*
X70224Y-38700D01*
X69610Y-36912D02*
X69610Y-38087D01*
X70224Y-36299D02*
X69610Y-36912D01*
X65147Y-28520D02*
X66299Y-29672D01*
X64453Y-28520D02*
X65147Y-28520D01*
X64240Y-28307D02*
X64453Y-28520D01*
X66709Y-30082D02*
X66299Y-29672D01*
X66709Y-30927D02*
X66709Y-30082D01*
X66299Y-31336D02*
X66709Y-30927D01*
X66299Y-31829D02*
X66299Y-31336D01*
X66633Y-32162D02*
X66299Y-31829D01*
X67313Y-32162D02*
X66633Y-32162D01*
X73576Y-28251D02*
X73576Y-27912D01*
X72621Y-29206D02*
X73576Y-28251D01*
X72428Y-29206D02*
X72621Y-29206D01*
X71338Y-30295D02*
X72428Y-29206D01*
X69554Y-30295D02*
X71338Y-30295D01*
X68442Y-31408D02*
X69554Y-30295D01*
X70224Y-33042D02*
X70513Y-33042D01*
X71557Y-33765D02*
X72024Y-33765D01*
X72358Y-38892D02*
X71720Y-39530D01*
X72358Y-34099D02*
X72358Y-38892D01*
X72024Y-33765D02*
X72358Y-34099D01*
X76148Y-33265D02*
X75357Y-33265D01*
X76375Y-33492D02*
X76148Y-33265D01*
X77052Y-33492D02*
X77223Y-33663D01*
X76375Y-33492D02*
X77052Y-33492D01*
X77740Y-33663D02*
X77223Y-33663D01*
X63818Y-47460D02*
X63818Y-47106D01*
X66922Y-45672D02*
X66949Y-45700D01*
X66185Y-46409D02*
X66922Y-45672D01*
X64787Y-46409D02*
X66185Y-46409D01*
X64090Y-47106D02*
X64787Y-46409D01*
X63818Y-47106D02*
X64090Y-47106D01*
X66622Y-44323D02*
X67193Y-44323D01*
X67393Y-44123D02*
X67193Y-44323D01*
X67460Y-44123D02*
X67393Y-44123D01*
X68256Y-42138D02*
X68256Y-39517D01*
X68520Y-42403D02*
X68256Y-42138D01*
X68520Y-42910D02*
X68520Y-42403D01*
X67460Y-43970D02*
X68520Y-42910D01*
X67460Y-44123D02*
X67460Y-43970D01*
X67460Y-44123D02*
X67460Y-44446D01*
X67365Y-45229D02*
X66922Y-45672D01*
X67365Y-44541D02*
X67365Y-45229D01*
X67460Y-44446D02*
X67365Y-44541D01*
X74876Y-27912D02*
X74360Y-27912D01*
X74360Y-28144D02*
X74360Y-27912D01*
X73696Y-28808D02*
X74360Y-28144D01*
X73465Y-28808D02*
X73696Y-28808D01*
X72752Y-29521D02*
X73465Y-28808D01*
X72645Y-29521D02*
X72752Y-29521D01*
X71090Y-31075D02*
X72645Y-29521D01*
X71090Y-31461D02*
X71090Y-31075D01*
X71394Y-31765D02*
X71090Y-31461D01*
X71557Y-31765D02*
X71394Y-31765D01*
X70224Y-48425D02*
X70224Y-49878D01*
X71968Y-48869D02*
X71417Y-48318D01*
X71968Y-49544D02*
X71968Y-48869D01*
X71633Y-49878D02*
X71968Y-49544D01*
X70224Y-49878D02*
X71633Y-49878D01*
X70224Y-49878D02*
X70224Y-50866D01*
X70224Y-50866D02*
X70224Y-53267D01*
X74409Y-43673D02*
X75708Y-42374D01*
X73582Y-43673D02*
X74409Y-43673D01*
X70224Y-45984D02*
X70224Y-48425D01*
X71417Y-47319D02*
X71508Y-47228D01*
X71417Y-48318D02*
X71417Y-47319D01*
X71508Y-46259D02*
X72086Y-45681D01*
X71508Y-47228D02*
X71508Y-46259D01*
X75273Y-44740D02*
X74756Y-44740D01*
X73021Y-44234D02*
X73582Y-43673D01*
X73021Y-44983D02*
X73021Y-44234D01*
X73263Y-45225D02*
X73021Y-44983D01*
X74271Y-45225D02*
X73263Y-45225D01*
X74756Y-44740D02*
X74271Y-45225D01*
X72315Y-47228D02*
X71508Y-47228D01*
X73263Y-46280D02*
X72315Y-47228D01*
X73263Y-45225D02*
X73263Y-46280D01*
X64330Y-40641D02*
X65231Y-41542D01*
X75078Y-40641D02*
X72401Y-40641D01*
X75097Y-46039D02*
X75614Y-46039D01*
X75795Y-45858D02*
X75614Y-46039D01*
X75795Y-44512D02*
X75795Y-45858D01*
X78353Y-41953D02*
X75795Y-44512D01*
X78353Y-41200D02*
X78353Y-41953D01*
X77795Y-40641D02*
X78353Y-41200D01*
X63214Y-42202D02*
X61653Y-40641D01*
X64570Y-42202D02*
X63214Y-42202D01*
X65231Y-41542D02*
X64570Y-42202D01*
X75097Y-46039D02*
X74580Y-46039D01*
X72839Y-47780D02*
X72071Y-47780D01*
X74580Y-46039D02*
X72839Y-47780D01*
X71201Y-40641D02*
X70462Y-41380D01*
X72401Y-40641D02*
X71201Y-40641D01*
X70462Y-43344D02*
X70462Y-41380D01*
X70224Y-43582D02*
X70462Y-43344D01*
X70462Y-41380D02*
X70224Y-41141D01*
X66124Y-41525D02*
X67007Y-40641D01*
X66124Y-41542D02*
X66124Y-41525D01*
X66124Y-41542D02*
X65231Y-41542D01*
X67280Y-42698D02*
X66124Y-41542D01*
X68008Y-42698D02*
X67280Y-42698D01*
X70224Y-43590D02*
X69259Y-44555D01*
X70224Y-43582D02*
X70224Y-43590D01*
X65385Y-26019D02*
X64830Y-26574D01*
X66952Y-26019D02*
X65385Y-26019D01*
X67507Y-26574D02*
X66952Y-26019D01*
X75020Y-25717D02*
X75537Y-25717D01*
X75537Y-25717D02*
X75578Y-25717D01*
X75578Y-26574D02*
X75578Y-25717D01*
X76820Y-25100D02*
X78295Y-26574D01*
X75911Y-25100D02*
X76820Y-25100D01*
X75578Y-25433D02*
X75911Y-25100D01*
X75578Y-25717D02*
X75578Y-25433D01*
X75020Y-25717D02*
X74503Y-25717D01*
X70058Y-26574D02*
X70224Y-26574D01*
X69511Y-26028D02*
X70058Y-26574D01*
X68996Y-26028D02*
X69511Y-26028D01*
X68116Y-26907D02*
X68996Y-26028D01*
X67783Y-26574D02*
X68116Y-26907D01*
X67507Y-26574D02*
X67783Y-26574D01*
X68116Y-26907D02*
X70224Y-29015D01*
X73907Y-26313D02*
X74503Y-25717D01*
X72901Y-26313D02*
X73907Y-26313D01*
X72901Y-26574D02*
X72901Y-26313D01*
X70781Y-26017D02*
X70224Y-26574D01*
X72605Y-26017D02*
X70781Y-26017D01*
X72901Y-26313D02*
X72605Y-26017D01*
X62700Y-26028D02*
X62153Y-26574D01*
X64284Y-26028D02*
X62700Y-26028D01*
X64830Y-26574D02*
X64284Y-26028D01*
X63177Y-44212D02*
X63177Y-43338D01*
X60748Y-45074D02*
X62385Y-46712D01*
X60748Y-43228D02*
X60748Y-45074D01*
X61102Y-42874D02*
X60748Y-43228D01*
X62440Y-42874D02*
X61102Y-42874D01*
X62853Y-43287D02*
X62440Y-42874D01*
X63125Y-43287D02*
X62853Y-43287D01*
X63177Y-43338D02*
X63125Y-43287D01*
X62799Y-46712D02*
X62385Y-46712D01*
X62799Y-47460D02*
X62385Y-47460D01*
X62385Y-47460D02*
X62385Y-46712D01*
X67246Y-47424D02*
X67246Y-48369D01*
X62799Y-47460D02*
X62799Y-47815D01*
X64627Y-49643D02*
X62799Y-47815D01*
X67416Y-49643D02*
X64627Y-49643D01*
X67416Y-48538D02*
X67416Y-48935D01*
X67246Y-48369D02*
X67416Y-48538D01*
X67416Y-48935D02*
X67416Y-49643D01*
X62401Y-45708D02*
X63031Y-45708D01*
X63031Y-45708D02*
X63260Y-45937D01*
X73110Y-33265D02*
X73110Y-32124D01*
X60590Y-26181D02*
X60590Y-30393D01*
X61069Y-25702D02*
X60590Y-26181D01*
X73864Y-25702D02*
X61069Y-25702D01*
X74781Y-24785D02*
X73864Y-25702D01*
X77423Y-24785D02*
X74781Y-24785D01*
X78897Y-26259D02*
X77423Y-24785D01*
X78897Y-27480D02*
X78897Y-26259D01*
X75733Y-30644D02*
X78897Y-27480D01*
X74589Y-30644D02*
X75733Y-30644D01*
X73110Y-32124D02*
X74589Y-30644D01*
X62177Y-44212D02*
X62177Y-45484D01*
X62177Y-45484D02*
X62401Y-45708D01*
X62202Y-30705D02*
X62202Y-32223D01*
X61968Y-30472D02*
X62202Y-30705D01*
X62799Y-47086D02*
X63212Y-47086D01*
X71557Y-33265D02*
X72024Y-33265D01*
X76745Y-34185D02*
X77223Y-34663D01*
X76292Y-34185D02*
X76745Y-34185D01*
X75872Y-33765D02*
X76292Y-34185D01*
X75357Y-33765D02*
X75872Y-33765D01*
X77740Y-34663D02*
X77223Y-34663D01*
X74390Y-33265D02*
X73110Y-33265D01*
X73110Y-33265D02*
X72024Y-33265D01*
X74890Y-33765D02*
X74390Y-33265D01*
X75357Y-33765D02*
X74890Y-33765D01*
X63212Y-47495D02*
X63212Y-47086D01*
X63539Y-47823D02*
X63212Y-47495D01*
X65262Y-47823D02*
X63539Y-47823D01*
X65632Y-47452D02*
X65632Y-47424D01*
X65262Y-47823D02*
X65632Y-47452D01*
X65428Y-47989D02*
X65428Y-48935D01*
X65262Y-47823D02*
X65428Y-47989D01*
X63212Y-45985D02*
X63260Y-45937D01*
X63212Y-47086D02*
X63212Y-47086D01*
X63212Y-47086D02*
X63212Y-45985D01*
X63260Y-45937D02*
X63581Y-45616D01*
X64906Y-45616D02*
X63581Y-45616D01*
X64906Y-45645D02*
X64961Y-45700D01*
X64906Y-45616D02*
X64906Y-45645D01*
X64906Y-45370D02*
X65008Y-45268D01*
X64906Y-45616D02*
X64906Y-45370D01*
X65008Y-44323D02*
X65008Y-45268D01*
X71557Y-31265D02*
X72024Y-31265D01*
X76152Y-26502D02*
X76320Y-26334D01*
X76152Y-28203D02*
X76152Y-26502D01*
X75063Y-29292D02*
X76152Y-28203D01*
X74639Y-29292D02*
X75063Y-29292D01*
X74469Y-29123D02*
X74639Y-29292D01*
X73728Y-29123D02*
X74469Y-29123D01*
X72024Y-30827D02*
X73728Y-29123D01*
X72024Y-31265D02*
X72024Y-30827D01*
X76320Y-25717D02*
X76320Y-26334D01*
X75357Y-31765D02*
X75824Y-31765D01*
X77223Y-31437D02*
X77223Y-31663D01*
X76901Y-31115D02*
X77223Y-31437D01*
X76474Y-31115D02*
X76901Y-31115D01*
X75824Y-31765D02*
X76474Y-31115D01*
X77740Y-31663D02*
X77223Y-31663D01*
X75357Y-35765D02*
X75824Y-35765D01*
X78013Y-36453D02*
X77740Y-36179D01*
X78013Y-37288D02*
X78013Y-36453D01*
X77703Y-37598D02*
X78013Y-37288D01*
X77279Y-37598D02*
X77703Y-37598D01*
X76979Y-37298D02*
X77279Y-37598D01*
X76979Y-36920D02*
X76979Y-37298D01*
X75824Y-35765D02*
X76979Y-36920D01*
X77740Y-35663D02*
X77740Y-36179D01*
X75357Y-35265D02*
X74890Y-35265D01*
X64202Y-32223D02*
X64918Y-32223D01*
X64918Y-32804D02*
X67173Y-35059D01*
X64918Y-32223D02*
X64918Y-32804D01*
X74890Y-36876D02*
X74449Y-37317D01*
X74890Y-35265D02*
X74890Y-36876D01*
X75357Y-31265D02*
X75824Y-31265D01*
X76426Y-30663D02*
X77740Y-30663D01*
X75824Y-31265D02*
X76426Y-30663D01*
X74075Y-30714D02*
X72024Y-32765D01*
X74075Y-29950D02*
X74075Y-30714D01*
X71557Y-32765D02*
X72024Y-32765D01*
X76573Y-44740D02*
X77089Y-44740D01*
X78681Y-43149D02*
X77089Y-44740D01*
X78681Y-40608D02*
X78681Y-43149D01*
X75293Y-37220D02*
X78681Y-40608D01*
X61153Y-26574D02*
X61153Y-31208D01*
X60590Y-40578D02*
X61653Y-41641D01*
X60590Y-31771D02*
X60590Y-40578D01*
X61153Y-31208D02*
X60590Y-31771D01*
X71090Y-32049D02*
X71090Y-34265D01*
X70775Y-31734D02*
X71090Y-32049D01*
X70775Y-31195D02*
X70775Y-31734D01*
X70450Y-30870D02*
X70775Y-31195D01*
X69771Y-30870D02*
X70450Y-30870D01*
X69224Y-31417D02*
X69771Y-30870D01*
X71557Y-34265D02*
X72024Y-34265D01*
X71557Y-34265D02*
X71090Y-34265D01*
X61653Y-41727D02*
X61643Y-41737D01*
X61653Y-41641D02*
X61653Y-41727D01*
X71171Y-44037D02*
X71171Y-42874D01*
X69224Y-45984D02*
X71171Y-44037D01*
X70002Y-40187D02*
X69144Y-40187D01*
X72024Y-38166D02*
X70002Y-40187D01*
X72024Y-34265D02*
X72024Y-38166D01*
X62984Y-42972D02*
X66441Y-42972D01*
X61653Y-41641D02*
X62984Y-42972D01*
M02*
