G04 (created by PCBNEW (2013-may-18)-stable) date Thu 08 Oct 2015 06:06:15 PM EEST*
%MOIN*%
G04 Gerber Fmt 3.4, Leading zero omitted, Abs format*
%FSLAX34Y34*%
G01*
G70*
G90*
G04 APERTURE LIST*
%ADD10C,0.00590551*%
%ADD11C,0.0590551*%
%ADD12C,0.019685*%
G04 APERTURE END LIST*
G54D10*
G54D11*
X75837Y-36604D03*
X75372Y-29907D03*
X63575Y-41649D03*
X68235Y-44872D03*
X74851Y-28780D03*
X73111Y-36747D03*
X76749Y-27450D03*
X66197Y-30715D03*
X77491Y-37086D03*
X68780Y-28396D03*
X74393Y-39639D03*
X76674Y-31640D03*
X69950Y-42160D03*
X65471Y-27447D03*
X68306Y-50081D03*
X65893Y-40921D03*
X70122Y-37233D03*
X71603Y-28706D03*
X72279Y-28379D03*
X76417Y-32599D03*
X73375Y-41169D03*
X69127Y-32802D03*
X70513Y-33042D03*
X70461Y-35515D03*
X76375Y-33492D03*
X68256Y-39517D03*
X71720Y-39530D03*
X69259Y-44555D03*
X68008Y-42698D03*
X72071Y-47780D03*
X60590Y-30393D03*
X62401Y-45708D03*
X61968Y-30472D03*
X67173Y-35059D03*
X74449Y-37317D03*
X75293Y-37220D03*
X74075Y-29950D03*
X71171Y-42874D03*
X69144Y-40187D03*
X66441Y-42972D03*
G54D12*
X75372Y-36139D02*
X75837Y-36604D01*
X75372Y-29907D02*
X75372Y-36139D01*
X66306Y-44872D02*
X68235Y-44872D01*
X63575Y-42141D02*
X66306Y-44872D01*
X63575Y-41649D02*
X63575Y-42141D01*
X74851Y-35007D02*
X73111Y-36747D01*
X74851Y-28780D02*
X74851Y-35007D01*
X77543Y-37034D02*
X77491Y-37086D01*
X77543Y-28243D02*
X77543Y-37034D01*
X76749Y-27450D02*
X77543Y-28243D01*
X69002Y-27450D02*
X76749Y-27450D01*
X67109Y-29342D02*
X69002Y-27450D01*
X67109Y-30025D02*
X67109Y-29342D01*
X66420Y-30715D02*
X67109Y-30025D01*
X66197Y-30715D02*
X66420Y-30715D01*
X77202Y-32168D02*
X76674Y-31640D01*
X77202Y-36651D02*
X77202Y-32168D01*
X76979Y-36874D02*
X77202Y-36651D01*
X76979Y-37203D02*
X76979Y-36874D01*
X74543Y-39639D02*
X76979Y-37203D01*
X74393Y-39639D02*
X74543Y-39639D01*
X76674Y-29434D02*
X76674Y-31640D01*
X75107Y-27867D02*
X76674Y-29434D01*
X69309Y-27867D02*
X75107Y-27867D01*
X68780Y-28396D02*
X69309Y-27867D01*
X74393Y-40889D02*
X74393Y-39639D01*
X72857Y-42425D02*
X74393Y-40889D01*
X71969Y-42425D02*
X72857Y-42425D01*
X71703Y-42160D02*
X71969Y-42425D01*
X69950Y-42160D02*
X71703Y-42160D01*
X65471Y-28263D02*
X65471Y-27447D01*
X64680Y-29054D02*
X65471Y-28263D01*
X64680Y-31232D02*
X64680Y-29054D01*
X64680Y-31232D02*
X64680Y-31232D01*
X65893Y-32444D02*
X64680Y-31232D01*
X65893Y-40921D02*
X65893Y-32444D01*
X68747Y-49641D02*
X68306Y-50081D01*
X68747Y-44660D02*
X68747Y-49641D01*
X68447Y-44360D02*
X68747Y-44660D01*
X67080Y-44360D02*
X68447Y-44360D01*
X65893Y-43172D02*
X67080Y-44360D01*
X65893Y-40921D02*
X65893Y-43172D01*
X71603Y-35751D02*
X71603Y-28706D01*
X70122Y-37233D02*
X71603Y-35751D01*
X73375Y-39928D02*
X73375Y-41169D01*
X74246Y-39058D02*
X73375Y-39928D01*
X74667Y-39058D02*
X74246Y-39058D01*
X76664Y-37061D02*
X74667Y-39058D01*
X76664Y-36743D02*
X76664Y-37061D01*
X76887Y-36520D02*
X76664Y-36743D01*
X76887Y-33070D02*
X76887Y-36520D01*
X76417Y-32599D02*
X76887Y-33070D01*
X72279Y-28267D02*
X72279Y-28379D01*
X76162Y-32344D02*
X76417Y-32599D01*
X76162Y-29367D02*
X76162Y-32344D01*
X75061Y-28267D02*
X76162Y-29367D01*
X72279Y-28267D02*
X75061Y-28267D01*
X69085Y-32759D02*
X69127Y-32802D01*
X69085Y-32527D02*
X69085Y-32759D01*
X69085Y-32527D02*
X69085Y-32527D01*
X68486Y-31929D02*
X69085Y-32527D01*
X68486Y-31586D02*
X68486Y-31929D01*
X68379Y-31479D02*
X68486Y-31586D01*
X68379Y-30972D02*
X68379Y-31479D01*
X69041Y-30311D02*
X68379Y-30972D01*
X69645Y-30311D02*
X69041Y-30311D01*
X71091Y-28864D02*
X69645Y-30311D01*
X71091Y-28490D02*
X71091Y-28864D01*
X71388Y-28194D02*
X71091Y-28490D01*
X72206Y-28194D02*
X71388Y-28194D01*
X72279Y-28267D02*
X72206Y-28194D01*
X70958Y-33487D02*
X70513Y-33042D01*
X70958Y-35018D02*
X70958Y-33487D01*
X70461Y-35515D02*
X70958Y-35018D01*
X68269Y-39530D02*
X68256Y-39517D01*
X71720Y-39530D02*
X68269Y-39530D01*
X72507Y-38743D02*
X71720Y-39530D01*
X74520Y-38743D02*
X72507Y-38743D01*
X76349Y-36914D02*
X74520Y-38743D01*
X76349Y-33518D02*
X76349Y-36914D01*
X76375Y-33492D02*
X76349Y-33518D01*
X68008Y-43304D02*
X69259Y-44555D01*
X68008Y-42698D02*
X68008Y-43304D01*
X71575Y-47284D02*
X72071Y-47780D01*
X71575Y-47284D02*
X71575Y-47284D01*
X71455Y-47284D02*
X71575Y-47284D01*
X71050Y-46880D02*
X71455Y-47284D01*
X71050Y-45622D02*
X71050Y-46880D01*
X69984Y-44555D02*
X71050Y-45622D01*
X69259Y-44555D02*
X69984Y-44555D01*
X60669Y-30472D02*
X61968Y-30472D01*
X60590Y-30393D02*
X60669Y-30472D01*
X62401Y-45708D02*
X61062Y-44370D01*
X61062Y-44370D02*
X61062Y-42362D01*
X61062Y-42362D02*
X60629Y-41929D01*
X60629Y-41929D02*
X60629Y-31811D01*
X60629Y-31811D02*
X61968Y-30472D01*
X74011Y-37755D02*
X74449Y-37317D01*
X69869Y-37755D02*
X74011Y-37755D01*
X67173Y-35059D02*
X69869Y-37755D01*
X74877Y-36804D02*
X75293Y-37220D01*
X73982Y-36804D02*
X74877Y-36804D01*
X73519Y-37267D02*
X73982Y-36804D01*
X72907Y-37267D02*
X73519Y-37267D01*
X72589Y-36949D02*
X72907Y-37267D01*
X72589Y-31436D02*
X72589Y-36949D01*
X74075Y-29950D02*
X72589Y-31436D01*
X69940Y-42874D02*
X71171Y-42874D01*
X68645Y-41578D02*
X69940Y-42874D01*
X68645Y-40686D02*
X69144Y-40187D01*
X68645Y-41578D02*
X68645Y-40686D01*
X67835Y-41578D02*
X66441Y-42972D01*
X68645Y-41578D02*
X67835Y-41578D01*
M02*
