<?xml version="1.0" standalone="no"?>
 <!DOCTYPE svg PUBLIC "-//W3C//DTD SVG 1.1//EN" 
 "http://www.w3.org/Graphics/SVG/1.1/DTD/svg11.dtd"> 
<svg xmlns="http://www.w3.org/2000/svg" version="1.1" 
    width="41.9989cm" height="29.7002cm" viewBox="0 0 165350 116930 ">
<title>SVG Picture created as otit-F_Cu.svg date 2015/10/09 11:48:00 </title>
  <desc>Picture generated by PCBNEW </desc>
<g style="fill:#000000; fill-opacity:1;stroke:#000000; stroke-opacity:1;
stroke-linecap:round; stroke-linejoin:round; "
 transform="translate(0 0) scale(1 1)">
</g>
<g style="fill:#000000; fill-opacity:0.0; 
stroke:#000000; stroke-width:59.0551; stroke-opacity:1; 
stroke-linecap:round; stroke-linejoin:round;">
</g>
<g style="fill:#000000; fill-opacity:1.0; 
stroke:#000000; stroke-width:59.0551; stroke-opacity:1; 
stroke-linecap:round; stroke-linejoin:round;">
<circle cx="75837.1" cy="36604.3" r="265.748" /> 
<circle cx="75372.5" cy="29907.5" r="265.748" /> 
<circle cx="63575.6" cy="41649.3" r="265.748" /> 
<circle cx="68235.6" cy="44872.1" r="265.748" /> 
<circle cx="74851.2" cy="28780.7" r="265.748" /> 
<circle cx="73111.2" cy="36747.2" r="265.748" /> 
<circle cx="76749.9" cy="27450" r="265.748" /> 
<circle cx="66197.8" cy="30715" r="265.748" /> 
<circle cx="77491.2" cy="37086.5" r="265.748" /> 
<circle cx="68780.2" cy="28396.2" r="265.748" /> 
<circle cx="74393.7" cy="39639.5" r="265.748" /> 
<circle cx="76674.1" cy="31640" r="265.748" /> 
<circle cx="69951" cy="42160.2" r="265.748" /> 
<circle cx="65471.7" cy="27447.7" r="265.748" /> 
<circle cx="68306.7" cy="50081.9" r="265.748" /> 
<circle cx="65893.1" cy="40921.4" r="265.748" /> 
<circle cx="70122.8" cy="37233.1" r="265.748" /> 
<circle cx="71603.9" cy="28706.1" r="265.748" /> 
<circle cx="72279.3" cy="28379" r="265.748" /> 
<circle cx="76417.2" cy="32600" r="265.748" /> 
<circle cx="73376" cy="41169.7" r="265.748" /> 
<circle cx="69128" cy="32802.1" r="265.748" /> 
<circle cx="70513.7" cy="33042.9" r="265.748" /> 
<circle cx="70461.9" cy="35515.1" r="265.748" /> 
<circle cx="76375.3" cy="33492.3" r="265.748" /> 
<circle cx="68256" cy="39517" r="265.748" /> 
<circle cx="71720" cy="39530.2" r="265.748" /> 
<circle cx="69259.5" cy="44555.5" r="265.748" /> 
<circle cx="68008.7" cy="42698.8" r="265.748" /> 
<circle cx="72071.5" cy="47780.1" r="265.748" /> 
<circle cx="60590.6" cy="30393.7" r="265.748" /> 
<circle cx="62401.6" cy="45708.7" r="265.748" /> 
<circle cx="61968.5" cy="30472.4" r="265.748" /> 
<circle cx="67173.5" cy="35059.1" r="265.748" /> 
<circle cx="74449.9" cy="37317.4" r="265.748" /> 
<circle cx="75293.1" cy="37220.1" r="265.748" /> 
<circle cx="74075.1" cy="29950.4" r="265.748" /> 
<circle cx="71171.1" cy="42874.1" r="265.748" /> 
<circle cx="69144.3" cy="40188" r="265.748" /> 
<circle cx="66441.5" cy="42972.3" r="265.748" /> 
</g>
<g style="fill:#000000; fill-opacity:1.0; 
stroke:#000000; stroke-width:196.85; stroke-opacity:1; 
stroke-linecap:round; stroke-linejoin:round;">
<path d="M75372 36139
L75837 36604
" />
<path d="M75372 29907
L75372 36139
" />
<path d="M66306 44872
L68235 44872
" />
<path d="M63575 42141
L66306 44872
" />
<path d="M63575 41649
L63575 42141
" />
<path d="M74851 35007
L73111 36747
" />
<path d="M74851 28780
L74851 35007
" />
<path d="M77543 37034
L77491 37086
" />
<path d="M77543 28243
L77543 37034
" />
<path d="M76749 27450
L77543 28243
" />
<path d="M69002 27450
L76749 27450
" />
<path d="M67109 29342
L69002 27450
" />
<path d="M67109 30025
L67109 29342
" />
<path d="M66420 30715
L67109 30025
" />
<path d="M66197 30715
L66420 30715
" />
<path d="M77202 32168
L76674 31640
" />
<path d="M77202 36651
L77202 32168
" />
<path d="M76979 36874
L77202 36651
" />
<path d="M76979 37203
L76979 36874
" />
<path d="M74543 39639
L76979 37203
" />
<path d="M74393 39639
L74543 39639
" />
<path d="M76674 29434
L76674 31640
" />
<path d="M75107 27867
L76674 29434
" />
<path d="M69309 27867
L75107 27867
" />
<path d="M68780 28396
L69309 27867
" />
<path d="M74393 40889
L74393 39639
" />
<path d="M72857 42425
L74393 40889
" />
<path d="M71969 42425
L72857 42425
" />
<path d="M71703 42160
L71969 42425
" />
<path d="M69950 42160
L71703 42160
" />
<path d="M65471 28263
L65471 27447
" />
<path d="M64680 29054
L65471 28263
" />
<path d="M64680 31232
L64680 29054
" />
<path d="M64680 31232
L64680 31232
" />
<path d="M65893 32444
L64680 31232
" />
<path d="M65893 40921
L65893 32444
" />
<path d="M68747 49641
L68306 50081
" />
<path d="M68747 44660
L68747 49641
" />
<path d="M68447 44360
L68747 44660
" />
<path d="M67080 44360
L68447 44360
" />
<path d="M65893 43172
L67080 44360
" />
<path d="M65893 40921
L65893 43172
" />
<path d="M71603 35751
L71603 28706
" />
<path d="M70122 37233
L71603 35751
" />
<path d="M73375 39928
L73375 41169
" />
<path d="M74246 39058
L73375 39928
" />
<path d="M74667 39058
L74246 39058
" />
<path d="M76664 37061
L74667 39058
" />
<path d="M76664 36743
L76664 37061
" />
<path d="M76887 36520
L76664 36743
" />
<path d="M76887 33070
L76887 36520
" />
<path d="M76417 32599
L76887 33070
" />
<path d="M72279 28267
L72279 28379
" />
<path d="M76162 32344
L76417 32599
" />
<path d="M76162 29367
L76162 32344
" />
<path d="M75061 28267
L76162 29367
" />
<path d="M72279 28267
L75061 28267
" />
<path d="M69085 32759
L69127 32802
" />
<path d="M69085 32527
L69085 32759
" />
<path d="M69085 32527
L69085 32527
" />
<path d="M68486 31929
L69085 32527
" />
<path d="M68486 31586
L68486 31929
" />
<path d="M68379 31479
L68486 31586
" />
<path d="M68379 30972
L68379 31479
" />
<path d="M69041 30311
L68379 30972
" />
<path d="M69645 30311
L69041 30311
" />
<path d="M71091 28864
L69645 30311
" />
<path d="M71091 28490
L71091 28864
" />
<path d="M71388 28194
L71091 28490
" />
<path d="M72206 28194
L71388 28194
" />
<path d="M72279 28267
L72206 28194
" />
<path d="M70958 33487
L70513 33042
" />
<path d="M70958 35018
L70958 33487
" />
<path d="M70461 35515
L70958 35018
" />
<path d="M68269 39530
L68256 39517
" />
<path d="M71720 39530
L68269 39530
" />
<path d="M72507 38743
L71720 39530
" />
<path d="M74520 38743
L72507 38743
" />
<path d="M76349 36914
L74520 38743
" />
<path d="M76349 33518
L76349 36914
" />
<path d="M76375 33492
L76349 33518
" />
<path d="M68008 43304
L69259 44555
" />
<path d="M68008 42698
L68008 43304
" />
<path d="M71575 47284
L72071 47780
" />
<path d="M71575 47284
L71575 47284
" />
<path d="M71455 47284
L71575 47284
" />
<path d="M71050 46880
L71455 47284
" />
<path d="M71050 45622
L71050 46880
" />
<path d="M69984 44555
L71050 45622
" />
<path d="M69259 44555
L69984 44555
" />
<path d="M60669 30472
L61968 30472
" />
<path d="M60590 30393
L60669 30472
" />
<path d="M62401 45708
L61062 44370
" />
<path d="M61062 44370
L61062 42362
" />
<path d="M61062 42362
L60629 41929
" />
<path d="M60629 41929
L60629 31811
" />
<path d="M60629 31811
L61968 30472
" />
<path d="M74011 37755
L74449 37317
" />
<path d="M69869 37755
L74011 37755
" />
<path d="M67173 35059
L69869 37755
" />
<path d="M74877 36804
L75293 37220
" />
<path d="M73982 36804
L74877 36804
" />
<path d="M73519 37267
L73982 36804
" />
<path d="M72907 37267
L73519 37267
" />
<path d="M72589 36949
L72907 37267
" />
<path d="M72589 31436
L72589 36949
" />
<path d="M74075 29950
L72589 31436
" />
<path d="M69940 42874
L71171 42874
" />
<path d="M68645 41578
L69940 42874
" />
<path d="M68645 40686
L69144 40187
" />
<path d="M68645 41578
L68645 40686
" />
<path d="M67835 41578
L66441 42972
" />
<path d="M68645 41578
L67835 41578
" />
</g>
<g style="fill:#FFFFFF; fill-opacity:1.0; 
stroke:#FFFFFF; stroke-width:59.0551; stroke-opacity:1; 
stroke-linecap:round; stroke-linejoin:round;">
<circle cx="75837.1" cy="36604.3" r="39.3701" /> 
<circle cx="75372.5" cy="29907.5" r="39.3701" /> 
<circle cx="63575.6" cy="41649.3" r="39.3701" /> 
<circle cx="68235.6" cy="44872.1" r="39.3701" /> 
<circle cx="74851.2" cy="28780.7" r="39.3701" /> 
<circle cx="73111.2" cy="36747.2" r="39.3701" /> 
<circle cx="76749.9" cy="27450" r="39.3701" /> 
<circle cx="66197.8" cy="30715" r="39.3701" /> 
<circle cx="77491.2" cy="37086.5" r="39.3701" /> 
<circle cx="68780.2" cy="28396.2" r="39.3701" /> 
<circle cx="74393.7" cy="39639.5" r="39.3701" /> 
<circle cx="76674.1" cy="31640" r="39.3701" /> 
<circle cx="69951" cy="42160.2" r="39.3701" /> 
<circle cx="65471.7" cy="27447.7" r="39.3701" /> 
<circle cx="68306.7" cy="50081.9" r="39.3701" /> 
<circle cx="65893.1" cy="40921.4" r="39.3701" /> 
<circle cx="70122.8" cy="37233.1" r="39.3701" /> 
<circle cx="71603.9" cy="28706.1" r="39.3701" /> 
<circle cx="72279.3" cy="28379" r="39.3701" /> 
<circle cx="76417.2" cy="32600" r="39.3701" /> 
<circle cx="73376" cy="41169.7" r="39.3701" /> 
<circle cx="69128" cy="32802.1" r="39.3701" /> 
<circle cx="70513.7" cy="33042.9" r="39.3701" /> 
<circle cx="70461.9" cy="35515.1" r="39.3701" /> 
<circle cx="76375.3" cy="33492.3" r="39.3701" /> 
<circle cx="68256" cy="39517" r="39.3701" /> 
<circle cx="71720" cy="39530.2" r="39.3701" /> 
<circle cx="69259.5" cy="44555.5" r="39.3701" /> 
<circle cx="68008.7" cy="42698.8" r="39.3701" /> 
<circle cx="72071.5" cy="47780.1" r="39.3701" /> 
<circle cx="60590.6" cy="30393.7" r="39.3701" /> 
<circle cx="62401.6" cy="45708.7" r="39.3701" /> 
<circle cx="61968.5" cy="30472.4" r="39.3701" /> 
<circle cx="67173.5" cy="35059.1" r="39.3701" /> 
<circle cx="74449.9" cy="37317.4" r="39.3701" /> 
<circle cx="75293.1" cy="37220.1" r="39.3701" /> 
<circle cx="74075.1" cy="29950.4" r="39.3701" /> 
<circle cx="71171.1" cy="42874.1" r="39.3701" /> 
<circle cx="69144.3" cy="40188" r="39.3701" /> 
<circle cx="66441.5" cy="42972.3" r="39.3701" /> 
<circle cx="69224.4" cy="43582.7" r="39.3701" /> 
<circle cx="70224.4" cy="43582.7" r="39.3701" /> 
<circle cx="71901.6" cy="26574.8" r="39.3701" /> 
<circle cx="72901.6" cy="26574.8" r="39.3701" /> 
<circle cx="77795.3" cy="41641.7" r="39.3701" /> 
<circle cx="77795.3" cy="40641.7" r="39.3701" /> 
<circle cx="75078.7" cy="41641.7" r="39.3701" /> 
<circle cx="75078.7" cy="40641.7" r="39.3701" /> 
<circle cx="64330.7" cy="41641.7" r="39.3701" /> 
<circle cx="64330.7" cy="40641.7" r="39.3701" /> 
<circle cx="61653.5" cy="41641.7" r="39.3701" /> 
<circle cx="61653.5" cy="40641.7" r="39.3701" /> 
<circle cx="71417.3" cy="49318.9" r="39.3701" /> 
<circle cx="71417.3" cy="48318.9" r="39.3701" /> 
<circle cx="69224.4" cy="53267.7" r="39.3701" /> 
<circle cx="70224.4" cy="53267.7" r="39.3701" /> 
<circle cx="69224.4" cy="50866.1" r="39.3701" /> 
<circle cx="70224.4" cy="50866.1" r="39.3701" /> 
<circle cx="75708.7" cy="43374" r="39.3701" /> 
<circle cx="75708.7" cy="42374" r="39.3701" /> 
<circle cx="73582.7" cy="44673.2" r="39.3701" /> 
<circle cx="73582.7" cy="43673.2" r="39.3701" /> 
<circle cx="72086.6" cy="46681.1" r="39.3701" /> 
<circle cx="72086.6" cy="45681.1" r="39.3701" /> 
<circle cx="69224.4" cy="48425.2" r="39.3701" /> 
<circle cx="70224.4" cy="48425.2" r="39.3701" /> 
<circle cx="69224.4" cy="45984.3" r="39.3701" /> 
<circle cx="70224.4" cy="45984.3" r="39.3701" /> 
<circle cx="69224.4" cy="41141.7" r="39.3701" /> 
<circle cx="70224.4" cy="41141.7" r="39.3701" /> 
<circle cx="69224.4" cy="26574.8" r="39.3701" /> 
<circle cx="70224.4" cy="26574.8" r="39.3701" /> 
<circle cx="66507.9" cy="26574.8" r="39.3701" /> 
<circle cx="67507.9" cy="26574.8" r="39.3701" /> 
<circle cx="69224.4" cy="29015.7" r="39.3701" /> 
<circle cx="70224.4" cy="29015.7" r="39.3701" /> 
<circle cx="77295.3" cy="26574.8" r="39.3701" /> 
<circle cx="78295.3" cy="26574.8" r="39.3701" /> 
<circle cx="74578.7" cy="26574.8" r="39.3701" /> 
<circle cx="75578.7" cy="26574.8" r="39.3701" /> 
<circle cx="63830.7" cy="26574.8" r="39.3701" /> 
<circle cx="64830.7" cy="26574.8" r="39.3701" /> 
<circle cx="61153.5" cy="26574.8" r="39.3701" /> 
<circle cx="62153.5" cy="26574.8" r="39.3701" /> 
<circle cx="68031.5" cy="34358.3" r="39.3701" /> 
<circle cx="68031.5" cy="33358.3" r="39.3701" /> 
<circle cx="69224.4" cy="38700.8" r="39.3701" /> 
<circle cx="70224.4" cy="38700.8" r="39.3701" /> 
<circle cx="69224.4" cy="36299.2" r="39.3701" /> 
<circle cx="70224.4" cy="36299.2" r="39.3701" /> 
<circle cx="63240.2" cy="28307.1" r="39.3701" /> 
<circle cx="64240.2" cy="28307.1" r="39.3701" /> 
<circle cx="65366.1" cy="29606.3" r="39.3701" /> 
<circle cx="66366.1" cy="29606.3" r="39.3701" /> 
<circle cx="66862.2" cy="31614.2" r="39.3701" /> 
<circle cx="67862.2" cy="31614.2" r="39.3701" /> 
<circle cx="69224.4" cy="33858.3" r="39.3701" /> 
<circle cx="70224.4" cy="33858.3" r="39.3701" /> 
<circle cx="69224.4" cy="31417.3" r="39.3701" /> 
<circle cx="70224.4" cy="31417.3" r="39.3701" /> 
<circle cx="72401.6" cy="41641.7" r="39.3701" /> 
<circle cx="72401.6" cy="40641.7" r="39.3701" /> 
<circle cx="67007.9" cy="41641.7" r="39.3701" /> 
<circle cx="67007.9" cy="40641.7" r="39.3701" /> 
</g> 
</svg>
