<?xml version="1.0" standalone="no"?>
 <!DOCTYPE svg PUBLIC "-//W3C//DTD SVG 1.1//EN" 
 "http://www.w3.org/Graphics/SVG/1.1/DTD/svg11.dtd"> 
<svg xmlns="http://www.w3.org/2000/svg" version="1.1" 
    width="41.9989cm" height="29.7002cm" viewBox="0 0 165350 116930 ">
<title>SVG Picture created as otit-B_Cu.svg date 2015/10/09 11:48:00 </title>
  <desc>Picture generated by PCBNEW </desc>
<g style="fill:#000000; fill-opacity:1;stroke:#000000; stroke-opacity:1;
stroke-linecap:round; stroke-linejoin:round; "
 transform="translate(0 0) scale(1 1)">
</g>
<g style="fill:#000000; fill-opacity:0.0; 
stroke:#000000; stroke-width:59.0551; stroke-opacity:1; 
stroke-linecap:round; stroke-linejoin:round;">
</g>
<g style="fill:#000000; fill-opacity:1.0; 
stroke:#000000; stroke-width:59.0551; stroke-opacity:1; 
stroke-linecap:round; stroke-linejoin:round;">
<polyline style="fill-rule:evenodd;"
points="71337,35694
71777,35694
71777,35835
71337,35835
71337,35694
" /> 
<polyline style="fill-rule:evenodd;"
points="71337,35194
71777,35194
71777,35335
71337,35335
71337,35194
" /> 
<polyline style="fill-rule:evenodd;"
points="71337,34694
71777,34694
71777,34835
71337,34835
71337,34694
" /> 
<polyline style="fill-rule:evenodd;"
points="71337,34194
71777,34194
71777,34335
71337,34335
71337,34194
" /> 
<polyline style="fill-rule:evenodd;"
points="71337,33694
71777,33694
71777,33835
71337,33835
71337,33694
" /> 
<polyline style="fill-rule:evenodd;"
points="71337,33194
71777,33194
71777,33335
71337,33335
71337,33194
" /> 
<polyline style="fill-rule:evenodd;"
points="71337,32694
71777,32694
71777,32835
71337,32835
71337,32694
" /> 
<polyline style="fill-rule:evenodd;"
points="71337,32194
71777,32194
71777,32335
71337,32335
71337,32194
" /> 
<polyline style="fill-rule:evenodd;"
points="71337,31694
71777,31694
71777,31835
71337,31835
71337,31694
" /> 
<polyline style="fill-rule:evenodd;"
points="71337,31194
71777,31194
71777,31335
71337,31335
71337,31194
" /> 
<polyline style="fill-rule:evenodd;"
points="75137,31194
75577,31194
75577,31335
75137,31335
75137,31194
" /> 
<polyline style="fill-rule:evenodd;"
points="75137,31694
75577,31694
75577,31835
75137,31835
75137,31694
" /> 
<polyline style="fill-rule:evenodd;"
points="75137,32194
75577,32194
75577,32335
75137,32335
75137,32194
" /> 
<polyline style="fill-rule:evenodd;"
points="75137,32694
75577,32694
75577,32835
75137,32835
75137,32694
" /> 
<polyline style="fill-rule:evenodd;"
points="75137,33194
75577,33194
75577,33335
75137,33335
75137,33194
" /> 
<polyline style="fill-rule:evenodd;"
points="75137,33694
75577,33694
75577,33835
75137,33835
75137,33694
" /> 
<polyline style="fill-rule:evenodd;"
points="75137,34194
75577,34194
75577,34335
75137,34335
75137,34194
" /> 
<polyline style="fill-rule:evenodd;"
points="75137,34694
75577,34694
75577,34835
75137,34835
75137,34694
" /> 
<polyline style="fill-rule:evenodd;"
points="75137,35194
75577,35194
75577,35335
75137,35335
75137,35194
" /> 
<polyline style="fill-rule:evenodd;"
points="75137,35694
75577,35694
75577,35835
75137,35835
75137,35694
" /> 
<polyline style="fill-rule:evenodd;"
points="76843,44370
76843,45111
76302,45111
76302,44370
76843,44370
" /> 
<polyline style="fill-rule:evenodd;"
points="75543,44370
75543,45111
75002,45111
75002,44370
75543,44370
" /> 
<polyline style="fill-rule:evenodd;"
points="76667,45668
76667,46409
76126,46409
76126,45668
76667,45668
" /> 
<polyline style="fill-rule:evenodd;"
points="75367,45668
75367,46409
74826,46409
74826,45668
75367,45668
" /> 
<polyline style="fill-rule:evenodd;"
points="75147,27541
75147,28282
74606,28282
74606,27541
75147,27541
" /> 
<polyline style="fill-rule:evenodd;"
points="73847,27541
73847,28282
73306,28282
73306,27541
73847,27541
" /> 
<polyline style="fill-rule:evenodd;"
points="76591,25347
76591,26088
76050,26088
76050,25347
76591,25347
" /> 
<polyline style="fill-rule:evenodd;"
points="75291,25347
75291,26088
74750,26088
74750,25347
75291,25347
" /> 
<polyline style="fill-rule:evenodd;"
points="61731,31753
62672,31753
62672,32694
61731,32694
61731,31753
" /> 
<polyline style="fill-rule:evenodd;"
points="61731,36753
62672,36753
62672,37694
61731,37694
61731,36753
" /> 
<polyline style="fill-rule:evenodd;"
points="63731,31753
64672,31753
64672,32694
63731,32694
63731,31753
" /> 
<polyline style="fill-rule:evenodd;"
points="63731,36753
64672,36753
64672,37694
63731,37694
63731,36753
" /> 
<circle cx="69224.4" cy="43582.7" r="300.472" /> 
<circle cx="70224.4" cy="43582.7" r="300.472" /> 
<circle cx="71901.6" cy="26574.8" r="300.472" /> 
<circle cx="72901.6" cy="26574.8" r="300.472" /> 
<circle cx="77795.3" cy="41641.7" r="300.472" /> 
<circle cx="77795.3" cy="40641.7" r="300.472" /> 
<circle cx="75078.7" cy="41641.7" r="300.472" /> 
<circle cx="75078.7" cy="40641.7" r="300.472" /> 
<circle cx="64330.7" cy="41641.7" r="300.472" /> 
<circle cx="64330.7" cy="40641.7" r="300.472" /> 
<circle cx="61653.5" cy="41641.7" r="300.472" /> 
<circle cx="61653.5" cy="40641.7" r="300.472" /> 
<circle cx="71417.3" cy="49318.9" r="300.472" /> 
<circle cx="71417.3" cy="48318.9" r="300.472" /> 
<circle cx="69224.4" cy="53267.7" r="300.472" /> 
<circle cx="70224.4" cy="53267.7" r="300.472" /> 
<circle cx="69224.4" cy="50866.1" r="300.472" /> 
<circle cx="70224.4" cy="50866.1" r="300.472" /> 
<circle cx="75708.7" cy="43374" r="300.472" /> 
<circle cx="75708.7" cy="42374" r="300.472" /> 
<circle cx="73582.7" cy="44673.2" r="300.472" /> 
<circle cx="73582.7" cy="43673.2" r="300.472" /> 
<circle cx="72086.6" cy="46681.1" r="300.472" /> 
<circle cx="72086.6" cy="45681.1" r="300.472" /> 
<circle cx="69224.4" cy="48425.2" r="300.472" /> 
<circle cx="70224.4" cy="48425.2" r="300.472" /> 
<circle cx="69224.4" cy="45984.3" r="300.472" /> 
<circle cx="70224.4" cy="45984.3" r="300.472" /> 
<circle cx="69224.4" cy="41141.7" r="300.472" /> 
<circle cx="70224.4" cy="41141.7" r="300.472" /> 
<circle cx="69224.4" cy="26574.8" r="300.472" /> 
<circle cx="70224.4" cy="26574.8" r="300.472" /> 
<circle cx="66507.9" cy="26574.8" r="300.472" /> 
<circle cx="67507.9" cy="26574.8" r="300.472" /> 
<circle cx="69224.4" cy="29015.7" r="300.472" /> 
<circle cx="70224.4" cy="29015.7" r="300.472" /> 
<circle cx="77295.3" cy="26574.8" r="300.472" /> 
<circle cx="78295.3" cy="26574.8" r="300.472" /> 
<circle cx="74578.7" cy="26574.8" r="300.472" /> 
<circle cx="75578.7" cy="26574.8" r="300.472" /> 
<circle cx="63830.7" cy="26574.8" r="300.472" /> 
<circle cx="64830.7" cy="26574.8" r="300.472" /> 
<circle cx="61153.5" cy="26574.8" r="300.472" /> 
<circle cx="62153.5" cy="26574.8" r="300.472" /> 
<circle cx="68031.5" cy="34358.3" r="300.472" /> 
<circle cx="68031.5" cy="33358.3" r="300.472" /> 
<circle cx="69224.4" cy="38700.8" r="300.472" /> 
<circle cx="70224.4" cy="38700.8" r="300.472" /> 
<circle cx="69224.4" cy="36299.2" r="300.472" /> 
<circle cx="70224.4" cy="36299.2" r="300.472" /> 
<circle cx="63240.2" cy="28307.1" r="300.472" /> 
<circle cx="64240.2" cy="28307.1" r="300.472" /> 
<circle cx="65366.1" cy="29606.3" r="300.472" /> 
<circle cx="66366.1" cy="29606.3" r="300.472" /> 
<circle cx="66862.2" cy="31614.2" r="300.472" /> 
<circle cx="67862.2" cy="31614.2" r="300.472" /> 
<circle cx="69224.4" cy="33858.3" r="300.472" /> 
<circle cx="70224.4" cy="33858.3" r="300.472" /> 
<circle cx="69224.4" cy="31417.3" r="300.472" /> 
<circle cx="70224.4" cy="31417.3" r="300.472" /> 
<circle cx="72401.6" cy="41641.7" r="300.472" /> 
<circle cx="72401.6" cy="40641.7" r="300.472" /> 
<circle cx="67007.9" cy="41641.7" r="300.472" /> 
<circle cx="67007.9" cy="40641.7" r="300.472" /> 
<polyline style="fill-rule:evenodd;"
points="63447,43942
63447,44483
62906,44483
62906,43942
63447,43942
" /> 
<polyline style="fill-rule:evenodd;"
points="62447,43942
62447,44483
61906,44483
61906,43942
62447,43942
" /> 
<polyline style="fill-rule:evenodd;"
points="77469,30392
78010,30392
78010,30933
77469,30933
77469,30392
" /> 
<polyline style="fill-rule:evenodd;"
points="77469,31392
78010,31392
78010,31933
77469,31933
77469,31392
" /> 
<polyline style="fill-rule:evenodd;"
points="77469,32392
78010,32392
78010,32933
77469,32933
77469,32392
" /> 
<polyline style="fill-rule:evenodd;"
points="77469,33392
78010,33392
78010,33933
77469,33933
77469,33392
" /> 
<polyline style="fill-rule:evenodd;"
points="77469,34392
78010,34392
78010,34933
77469,34933
77469,34392
" /> 
<polyline style="fill-rule:evenodd;"
points="77469,35392
78010,35392
78010,35933
77469,35933
77469,35392
" /> 
<polyline style="fill-rule:evenodd;"
points="63986,47568
63651,47568
63651,47352
63986,47352
63986,47568
" /> 
<polyline style="fill-rule:evenodd;"
points="63986,46820
63651,46820
63651,46604
63986,46604
63986,46820
" /> 
<polyline style="fill-rule:evenodd;"
points="62966,47568
62631,47568
62631,47352
62966,47352
62966,47568
" /> 
<polyline style="fill-rule:evenodd;"
points="62966,47194
62631,47194
62631,46978
62966,46978
62966,47194
" /> 
<polyline style="fill-rule:evenodd;"
points="62966,46820
62631,46820
62631,46604
62966,46604
62966,46820
" /> 
<polyline style="fill-rule:evenodd;"
points="66477,46163
66477,45238
67422,45238
67422,46163
66477,46163
" /> 
<polyline style="fill-rule:evenodd;"
points="64489,46163
64489,45238
65434,45238
65434,46163
64489,46163
" /> 
<polyline style="fill-rule:evenodd;"
points="66943,49397
66943,48472
67888,48472
67888,49397
66943,49397
" /> 
<polyline style="fill-rule:evenodd;"
points="64955,49397
64955,48472
65900,48472
65900,49397
64955,49397
" /> 
<polyline style="fill-rule:evenodd;"
points="65957,46725
65957,48122
65307,48122
65307,46725
65957,46725
" /> 
<polyline style="fill-rule:evenodd;"
points="67571,46725
67571,48122
66921,48122
66921,46725
67571,46725
" /> 
<polyline style="fill-rule:evenodd;"
points="66297,45022
66297,43624
66947,43624
66947,45022
66297,45022
" /> 
<polyline style="fill-rule:evenodd;"
points="64683,45022
64683,43624
65333,43624
65333,45022
64683,45022
" /> 
<circle cx="75837.1" cy="36604.3" r="265.748" /> 
<circle cx="75372.5" cy="29907.5" r="265.748" /> 
<circle cx="63575.6" cy="41649.3" r="265.748" /> 
<circle cx="68235.6" cy="44872.1" r="265.748" /> 
<circle cx="74851.2" cy="28780.7" r="265.748" /> 
<circle cx="73111.2" cy="36747.2" r="265.748" /> 
<circle cx="76749.9" cy="27450" r="265.748" /> 
<circle cx="66197.8" cy="30715" r="265.748" /> 
<circle cx="77491.2" cy="37086.5" r="265.748" /> 
<circle cx="68780.2" cy="28396.2" r="265.748" /> 
<circle cx="74393.7" cy="39639.5" r="265.748" /> 
<circle cx="76674.1" cy="31640" r="265.748" /> 
<circle cx="69951" cy="42160.2" r="265.748" /> 
<circle cx="65471.7" cy="27447.7" r="265.748" /> 
<circle cx="68306.7" cy="50081.9" r="265.748" /> 
<circle cx="65893.1" cy="40921.4" r="265.748" /> 
<circle cx="70122.8" cy="37233.1" r="265.748" /> 
<circle cx="71603.9" cy="28706.1" r="265.748" /> 
<circle cx="72279.3" cy="28379" r="265.748" /> 
<circle cx="76417.2" cy="32600" r="265.748" /> 
<circle cx="73376" cy="41169.7" r="265.748" /> 
<circle cx="69128" cy="32802.1" r="265.748" /> 
<circle cx="70513.7" cy="33042.9" r="265.748" /> 
<circle cx="70461.9" cy="35515.1" r="265.748" /> 
<circle cx="76375.3" cy="33492.3" r="265.748" /> 
<circle cx="68256" cy="39517" r="265.748" /> 
<circle cx="71720" cy="39530.2" r="265.748" /> 
<circle cx="69259.5" cy="44555.5" r="265.748" /> 
<circle cx="68008.7" cy="42698.8" r="265.748" /> 
<circle cx="72071.5" cy="47780.1" r="265.748" /> 
<circle cx="60590.6" cy="30393.7" r="265.748" /> 
<circle cx="62401.6" cy="45708.7" r="265.748" /> 
<circle cx="61968.5" cy="30472.4" r="265.748" /> 
<circle cx="67173.5" cy="35059.1" r="265.748" /> 
<circle cx="74449.9" cy="37317.4" r="265.748" /> 
<circle cx="75293.1" cy="37220.1" r="265.748" /> 
<circle cx="74075.1" cy="29950.4" r="265.748" /> 
<circle cx="71171.1" cy="42874.1" r="265.748" /> 
<circle cx="69144.3" cy="40188" r="265.748" /> 
<circle cx="66441.5" cy="42972.3" r="265.748" /> 
</g>
<g style="fill:#000000; fill-opacity:1.0; 
stroke:#000000; stroke-width:196.85; stroke-opacity:1; 
stroke-linecap:round; stroke-linejoin:round;">
<path d="M73498 30791
L72024 32265
" />
<path d="M73498 29803
L73498 30791
" />
<path d="M73863 29438
L73498 29803
" />
<path d="M74339 29438
L73863 29438
" />
<path d="M74808 29907
L74339 29438
" />
<path d="M75372 29907
L74808 29907
" />
<path d="M71557 32265
L72024 32265
" />
<path d="M76397 46039
L76914 46039
" />
<path d="M79004 43948
L76914 46039
" />
<path d="M79004 39771
L79004 43948
" />
<path d="M75837 36604
L79004 39771
" />
<path d="M71557 34765
L71090 34765
" />
<path d="M64330 41641
L63770 41641
" />
<path d="M63583 41641
L63575 41649
" />
<path d="M63770 41641
L63583 41641
" />
<path d="M68113 35073
L69276 33910
" />
<path d="M67969 35073
L68113 35073
" />
<path d="M69224 33858
L69276 33910
" />
<path d="M70986 34660
L71090 34765
" />
<path d="M70027 34660
L70986 34660
" />
<path d="M69276 33910
L70027 34660
" />
<path d="M63770 39273
L67969 35073
" />
<path d="M63770 41641
L63770 39273
" />
<path d="M68235 47436
L68235 44872
" />
<path d="M69224 48425
L68235 47436
" />
<path d="M65247 32351
L67969 35073
" />
<path d="M65247 31899
L65247 32351
" />
<path d="M62689 29342
L65247 31899
" />
<path d="M62689 27715
L62689 29342
" />
<path d="M63830 26574
L62689 27715
" />
<path d="M75028 28780
L74851 28780
" />
<path d="M75395 28413
L75028 28780
" />
<path d="M75395 27391
L75395 28413
" />
<path d="M74578 26574
L75395 27391
" />
<path d="M75357 34265
L74890 34265
" />
<path d="M72647 46120
L72086 46681
" />
<path d="M72647 43815
L72647 46120
" />
<path d="M74820 41641
L72647 43815
" />
<path d="M75078 41641
L74820 41641
" />
<path d="M75629 41091
L75078 41641
" />
<path d="M75629 40404
L75629 41091
" />
<path d="M75306 40081
L75629 40404
" />
<path d="M74675 40081
L75306 40081
" />
<path d="M74605 40151
L74675 40081
" />
<path d="M74167 40151
L74605 40151
" />
<path d="M73494 39478
L74167 40151
" />
<path d="M73494 36747
L73494 39478
" />
<path d="M73494 35661
L73494 36747
" />
<path d="M74890 34265
L73494 35661
" />
<path d="M73494 36747
L73111 36747
" />
<path d="M74524 26628
L74578 26574
" />
<path d="M73852 26628
L74524 26628
" />
<path d="M72791 27690
L73852 26628
" />
<path d="M72791 28591
L72791 27690
" />
<path d="M72491 28890
L72791 28591
" />
<path d="M72297 28890
L72491 28890
" />
<path d="M71207 29980
L72297 28890
" />
<path d="M68495 29980
L71207 29980
" />
<path d="M66862 31614
L68495 29980
" />
<path d="M76167 34517
L76618 34517
" />
<path d="M75920 34765
L75357 34765
" />
<path d="M76167 34517
L75920 34765
" />
<path d="M75357 34765
L74890 34765
" />
<path d="M77491 36529
L77491 37086
" />
<path d="M76618 35656
L77491 36529
" />
<path d="M76618 34517
L76618 35656
" />
<path d="M74188 44067
L73582 44673
" />
<path d="M75794 44067
L74188 44067
" />
<path d="M77795 42066
L75794 44067
" />
<path d="M77795 41641
L77795 42066
" />
<path d="M65366 29883
L66197 30715
" />
<path d="M65366 29606
L65366 29883
" />
<path d="M76749 27120
L76749 27450
" />
<path d="M77295 26574
L76749 27120
" />
<path d="M73907 37754
L77795 41641
" />
<path d="M73907 35748
L73907 37754
" />
<path d="M74890 34765
L73907 35748
" />
<path d="M69224 28840
L68780 28396
" />
<path d="M69224 29015
L69224 28840
" />
<path d="M75357 32265
L75824 32265
" />
<path d="M76071 32017
L75824 32265
" />
<path d="M76674 32017
L76071 32017
" />
<path d="M76674 32017
L76674 31640
" />
<path d="M77223 32567
L77223 32663
" />
<path d="M76674 32017
L77223 32567
" />
<path d="M77740 32663
L77223 32663
" />
<path d="M68588 28205
L68780 28396
" />
<path d="M65003 28205
L68588 28205
" />
<path d="M64557 27759
L65003 28205
" />
<path d="M63788 27759
L64557 27759
" />
<path d="M63240 28307
L63788 27759
" />
<path d="M69950 42160
L69950 42160
" />
<path d="M69950 42856
L69950 42160
" />
<path d="M69224 43582
L69950 42856
" />
<path d="M75310 39639
L74393 39639
" />
<path d="M76268 40597
L75310 39639
" />
<path d="M76268 42814
L76268 40597
" />
<path d="M75708 43374
L76268 42814
" />
<path d="M66720 40093
L65893 40921
" />
<path d="M67556 40093
L66720 40093
" />
<path d="M67556 37967
L67556 40093
" />
<path d="M69224 36299
L67556 37967
" />
<path d="M67556 41093
L67007 41641
" />
<path d="M67556 40093
L67556 41093
" />
<path d="M71038 35265
L71557 35265
" />
<path d="M70774 35000
L71038 35265
" />
<path d="M70251 35000
L70774 35000
" />
<path d="M69224 36028
L70251 35000
" />
<path d="M69224 36299
L69224 36028
" />
<path d="M68440 50081
L68306 50081
" />
<path d="M69224 50866
L68440 50081
" />
<path d="M65634 27447
L65471 27447
" />
<path d="M66507 26574
L65634 27447
" />
<path d="M69224 38700
L69224 39250
" />
<path d="M70790 37233
L70122 37233
" />
<path d="M70467 39250
L69224 39250
" />
<path d="M70790 38927
L70467 39250
" />
<path d="M70790 37233
L70790 38927
" />
<path d="M70790 36065
L71090 35765
" />
<path d="M70790 37233
L70790 36065
" />
<path d="M71557 35765
L71090 35765
" />
<path d="M68632 40549
L69224 41141
" />
<path d="M68632 39864
L68632 40549
" />
<path d="M69224 39272
L68632 39864
" />
<path d="M69224 39250
L69224 39272
" />
<path d="M67794 51838
L69224 53267
" />
<path d="M67794 49869
L67794 51838
" />
<path d="M68136 49528
L67794 49869
" />
<path d="M68136 48340
L68136 49528
" />
<path d="M67830 48035
L68136 48340
" />
<path d="M67830 46606
L67830 48035
" />
<path d="M67718 46493
L67830 46606
" />
<path d="M67718 44665
L67718 46493
" />
<path d="M68023 44360
L67718 44665
" />
<path d="M68023 43853
L68023 44360
" />
<path d="M69224 42652
L68023 43853
" />
<path d="M69224 41141
L69224 42652
" />
<path d="M71355 28706
L71603 28706
" />
<path d="M69224 26574
L71355 28706
" />
<path d="M72903 41641
L73375 41169
" />
<path d="M72401 41641
L72903 41641
" />
<path d="M68677 33712
L68031 34358
" />
<path d="M68677 33252
L68677 33712
" />
<path d="M69127 32802
L68677 33252
" />
<path d="M75357 32765
L75824 32765
" />
<path d="M75989 32599
L76417 32599
" />
<path d="M75824 32765
L75989 32599
" />
<path d="M72183 41860
L72401 41641
" />
<path d="M72183 43891
L72183 41860
" />
<path d="M70869 45205
L72183 43891
" />
<path d="M70869 48770
L70869 45205
" />
<path d="M71417 49318
L70869 48770
" />
<path d="M71901 28001
L72279 28379
" />
<path d="M71901 26574
L71901 28001
" />
<path d="M66299 29672
L66366 29606
" />
<path d="M70224 33858
L70224 33042
" />
<path d="M70224 31417
L70224 31977
" />
<path d="M70224 31977
L70224 33042
" />
<path d="M69011 31977
L68442 31408
" />
<path d="M70224 31977
L69011 31977
" />
<path d="M68236 31614
L67862 31614
" />
<path d="M68442 31408
L68236 31614
" />
<path d="M68031 32880
L68031 33358
" />
<path d="M67313 32162
L68031 32880
" />
<path d="M67862 31614
L67313 32162
" />
<path d="M70224 35752
L70461 35515
" />
<path d="M70224 36299
L70224 35752
" />
<path d="M69610 38087
L70224 38700
" />
<path d="M69610 36912
L69610 38087
" />
<path d="M70224 36299
L69610 36912
" />
<path d="M65147 28520
L66299 29672
" />
<path d="M64453 28520
L65147 28520
" />
<path d="M64240 28307
L64453 28520
" />
<path d="M66709 30082
L66299 29672
" />
<path d="M66709 30927
L66709 30082
" />
<path d="M66299 31336
L66709 30927
" />
<path d="M66299 31829
L66299 31336
" />
<path d="M66633 32162
L66299 31829
" />
<path d="M67313 32162
L66633 32162
" />
<path d="M73576 28251
L73576 27912
" />
<path d="M72621 29206
L73576 28251
" />
<path d="M72428 29206
L72621 29206
" />
<path d="M71338 30295
L72428 29206
" />
<path d="M69554 30295
L71338 30295
" />
<path d="M68442 31408
L69554 30295
" />
<path d="M70224 33042
L70513 33042
" />
<path d="M71557 33765
L72024 33765
" />
<path d="M72358 38892
L71720 39530
" />
<path d="M72358 34099
L72358 38892
" />
<path d="M72024 33765
L72358 34099
" />
<path d="M76148 33265
L75357 33265
" />
<path d="M76375 33492
L76148 33265
" />
<path d="M77052 33492
L77223 33663
" />
<path d="M76375 33492
L77052 33492
" />
<path d="M77740 33663
L77223 33663
" />
<path d="M63818 47460
L63818 47106
" />
<path d="M66922 45672
L66949 45700
" />
<path d="M66185 46409
L66922 45672
" />
<path d="M64787 46409
L66185 46409
" />
<path d="M64090 47106
L64787 46409
" />
<path d="M63818 47106
L64090 47106
" />
<path d="M66622 44323
L67193 44323
" />
<path d="M67393 44123
L67193 44323
" />
<path d="M67460 44123
L67393 44123
" />
<path d="M68256 42138
L68256 39517
" />
<path d="M68520 42403
L68256 42138
" />
<path d="M68520 42910
L68520 42403
" />
<path d="M67460 43970
L68520 42910
" />
<path d="M67460 44123
L67460 43970
" />
<path d="M67460 44123
L67460 44446
" />
<path d="M67365 45229
L66922 45672
" />
<path d="M67365 44541
L67365 45229
" />
<path d="M67460 44446
L67365 44541
" />
<path d="M74876 27912
L74360 27912
" />
<path d="M74360 28144
L74360 27912
" />
<path d="M73696 28808
L74360 28144
" />
<path d="M73465 28808
L73696 28808
" />
<path d="M72752 29521
L73465 28808
" />
<path d="M72645 29521
L72752 29521
" />
<path d="M71090 31075
L72645 29521
" />
<path d="M71090 31461
L71090 31075
" />
<path d="M71394 31765
L71090 31461
" />
<path d="M71557 31765
L71394 31765
" />
<path d="M70224 48425
L70224 49878
" />
<path d="M71968 48869
L71417 48318
" />
<path d="M71968 49544
L71968 48869
" />
<path d="M71633 49878
L71968 49544
" />
<path d="M70224 49878
L71633 49878
" />
<path d="M70224 49878
L70224 50866
" />
<path d="M70224 50866
L70224 53267
" />
<path d="M74409 43673
L75708 42374
" />
<path d="M73582 43673
L74409 43673
" />
<path d="M70224 45984
L70224 48425
" />
<path d="M71417 47319
L71508 47228
" />
<path d="M71417 48318
L71417 47319
" />
<path d="M71508 46259
L72086 45681
" />
<path d="M71508 47228
L71508 46259
" />
<path d="M75273 44740
L74756 44740
" />
<path d="M73021 44234
L73582 43673
" />
<path d="M73021 44983
L73021 44234
" />
<path d="M73263 45225
L73021 44983
" />
<path d="M74271 45225
L73263 45225
" />
<path d="M74756 44740
L74271 45225
" />
<path d="M72315 47228
L71508 47228
" />
<path d="M73263 46280
L72315 47228
" />
<path d="M73263 45225
L73263 46280
" />
<path d="M64330 40641
L65231 41542
" />
<path d="M75078 40641
L72401 40641
" />
<path d="M75097 46039
L75614 46039
" />
<path d="M75795 45858
L75614 46039
" />
<path d="M75795 44512
L75795 45858
" />
<path d="M78353 41953
L75795 44512
" />
<path d="M78353 41200
L78353 41953
" />
<path d="M77795 40641
L78353 41200
" />
<path d="M63214 42202
L61653 40641
" />
<path d="M64570 42202
L63214 42202
" />
<path d="M65231 41542
L64570 42202
" />
<path d="M75097 46039
L74580 46039
" />
<path d="M72839 47780
L72071 47780
" />
<path d="M74580 46039
L72839 47780
" />
<path d="M71201 40641
L70462 41380
" />
<path d="M72401 40641
L71201 40641
" />
<path d="M70462 43344
L70462 41380
" />
<path d="M70224 43582
L70462 43344
" />
<path d="M70462 41380
L70224 41141
" />
<path d="M66124 41525
L67007 40641
" />
<path d="M66124 41542
L66124 41525
" />
<path d="M66124 41542
L65231 41542
" />
<path d="M67280 42698
L66124 41542
" />
<path d="M68008 42698
L67280 42698
" />
<path d="M70224 43590
L69259 44555
" />
<path d="M70224 43582
L70224 43590
" />
<path d="M65385 26019
L64830 26574
" />
<path d="M66952 26019
L65385 26019
" />
<path d="M67507 26574
L66952 26019
" />
<path d="M75020 25717
L75537 25717
" />
<path d="M75537 25717
L75578 25717
" />
<path d="M75578 26574
L75578 25717
" />
<path d="M76820 25100
L78295 26574
" />
<path d="M75911 25100
L76820 25100
" />
<path d="M75578 25433
L75911 25100
" />
<path d="M75578 25717
L75578 25433
" />
<path d="M75020 25717
L74503 25717
" />
<path d="M70058 26574
L70224 26574
" />
<path d="M69511 26028
L70058 26574
" />
<path d="M68996 26028
L69511 26028
" />
<path d="M68116 26907
L68996 26028
" />
<path d="M67783 26574
L68116 26907
" />
<path d="M67507 26574
L67783 26574
" />
<path d="M68116 26907
L70224 29015
" />
<path d="M73907 26313
L74503 25717
" />
<path d="M72901 26313
L73907 26313
" />
<path d="M72901 26574
L72901 26313
" />
<path d="M70781 26017
L70224 26574
" />
<path d="M72605 26017
L70781 26017
" />
<path d="M72901 26313
L72605 26017
" />
<path d="M62700 26028
L62153 26574
" />
<path d="M64284 26028
L62700 26028
" />
<path d="M64830 26574
L64284 26028
" />
<path d="M63177 44212
L63177 43338
" />
<path d="M60748 45074
L62385 46712
" />
<path d="M60748 43228
L60748 45074
" />
<path d="M61102 42874
L60748 43228
" />
<path d="M62440 42874
L61102 42874
" />
<path d="M62853 43287
L62440 42874
" />
<path d="M63125 43287
L62853 43287
" />
<path d="M63177 43338
L63125 43287
" />
<path d="M62799 46712
L62385 46712
" />
<path d="M62799 47460
L62385 47460
" />
<path d="M62385 47460
L62385 46712
" />
<path d="M67246 47424
L67246 48369
" />
<path d="M62799 47460
L62799 47815
" />
<path d="M64627 49643
L62799 47815
" />
<path d="M67416 49643
L64627 49643
" />
<path d="M67416 48538
L67416 48935
" />
<path d="M67246 48369
L67416 48538
" />
<path d="M67416 48935
L67416 49643
" />
<path d="M62401 45708
L63031 45708
" />
<path d="M63031 45708
L63260 45937
" />
<path d="M73110 33265
L73110 32124
" />
<path d="M60590 26181
L60590 30393
" />
<path d="M61069 25702
L60590 26181
" />
<path d="M73864 25702
L61069 25702
" />
<path d="M74781 24785
L73864 25702
" />
<path d="M77423 24785
L74781 24785
" />
<path d="M78897 26259
L77423 24785
" />
<path d="M78897 27480
L78897 26259
" />
<path d="M75733 30644
L78897 27480
" />
<path d="M74589 30644
L75733 30644
" />
<path d="M73110 32124
L74589 30644
" />
<path d="M62177 44212
L62177 45484
" />
<path d="M62177 45484
L62401 45708
" />
<path d="M62202 30705
L62202 32223
" />
<path d="M61968 30472
L62202 30705
" />
<path d="M62799 47086
L63212 47086
" />
<path d="M71557 33265
L72024 33265
" />
<path d="M76745 34185
L77223 34663
" />
<path d="M76292 34185
L76745 34185
" />
<path d="M75872 33765
L76292 34185
" />
<path d="M75357 33765
L75872 33765
" />
<path d="M77740 34663
L77223 34663
" />
<path d="M74390 33265
L73110 33265
" />
<path d="M73110 33265
L72024 33265
" />
<path d="M74890 33765
L74390 33265
" />
<path d="M75357 33765
L74890 33765
" />
<path d="M63212 47495
L63212 47086
" />
<path d="M63539 47823
L63212 47495
" />
<path d="M65262 47823
L63539 47823
" />
<path d="M65632 47452
L65632 47424
" />
<path d="M65262 47823
L65632 47452
" />
<path d="M65428 47989
L65428 48935
" />
<path d="M65262 47823
L65428 47989
" />
<path d="M63212 45985
L63260 45937
" />
<path d="M63212 47086
L63212 47086
" />
<path d="M63212 47086
L63212 45985
" />
<path d="M63260 45937
L63581 45616
" />
<path d="M64906 45616
L63581 45616
" />
<path d="M64906 45645
L64961 45700
" />
<path d="M64906 45616
L64906 45645
" />
<path d="M64906 45370
L65008 45268
" />
<path d="M64906 45616
L64906 45370
" />
<path d="M65008 44323
L65008 45268
" />
<path d="M71557 31265
L72024 31265
" />
<path d="M76152 26502
L76320 26334
" />
<path d="M76152 28203
L76152 26502
" />
<path d="M75063 29292
L76152 28203
" />
<path d="M74639 29292
L75063 29292
" />
<path d="M74469 29123
L74639 29292
" />
<path d="M73728 29123
L74469 29123
" />
<path d="M72024 30827
L73728 29123
" />
<path d="M72024 31265
L72024 30827
" />
<path d="M76320 25717
L76320 26334
" />
<path d="M75357 31765
L75824 31765
" />
<path d="M77223 31437
L77223 31663
" />
<path d="M76901 31115
L77223 31437
" />
<path d="M76474 31115
L76901 31115
" />
<path d="M75824 31765
L76474 31115
" />
<path d="M77740 31663
L77223 31663
" />
<path d="M75357 35765
L75824 35765
" />
<path d="M78013 36453
L77740 36179
" />
<path d="M78013 37288
L78013 36453
" />
<path d="M77703 37598
L78013 37288
" />
<path d="M77279 37598
L77703 37598
" />
<path d="M76979 37298
L77279 37598
" />
<path d="M76979 36920
L76979 37298
" />
<path d="M75824 35765
L76979 36920
" />
<path d="M77740 35663
L77740 36179
" />
<path d="M75357 35265
L74890 35265
" />
<path d="M64202 32223
L64918 32223
" />
<path d="M64918 32804
L67173 35059
" />
<path d="M64918 32223
L64918 32804
" />
<path d="M74890 36876
L74449 37317
" />
<path d="M74890 35265
L74890 36876
" />
<path d="M75357 31265
L75824 31265
" />
<path d="M76426 30663
L77740 30663
" />
<path d="M75824 31265
L76426 30663
" />
<path d="M74075 30714
L72024 32765
" />
<path d="M74075 29950
L74075 30714
" />
<path d="M71557 32765
L72024 32765
" />
<path d="M76573 44740
L77089 44740
" />
<path d="M78681 43149
L77089 44740
" />
<path d="M78681 40608
L78681 43149
" />
<path d="M75293 37220
L78681 40608
" />
<path d="M61153 26574
L61153 31208
" />
<path d="M60590 40578
L61653 41641
" />
<path d="M60590 31771
L60590 40578
" />
<path d="M61153 31208
L60590 31771
" />
<path d="M71090 32049
L71090 34265
" />
<path d="M70775 31734
L71090 32049
" />
<path d="M70775 31195
L70775 31734
" />
<path d="M70450 30870
L70775 31195
" />
<path d="M69771 30870
L70450 30870
" />
<path d="M69224 31417
L69771 30870
" />
<path d="M71557 34265
L72024 34265
" />
<path d="M71557 34265
L71090 34265
" />
<path d="M61653 41727
L61643 41737
" />
<path d="M61653 41641
L61653 41727
" />
<path d="M71171 44037
L71171 42874
" />
<path d="M69224 45984
L71171 44037
" />
<path d="M70002 40187
L69144 40187
" />
<path d="M72024 38166
L70002 40187
" />
<path d="M72024 34265
L72024 38166
" />
<path d="M62984 42972
L66441 42972
" />
<path d="M61653 41641
L62984 42972
" />
</g>
<g style="fill:#FFFFFF; fill-opacity:1.0; 
stroke:#FFFFFF; stroke-width:59.0551; stroke-opacity:1; 
stroke-linecap:round; stroke-linejoin:round;">
<circle cx="75837.1" cy="36604.3" r="39.3701" /> 
<circle cx="75372.5" cy="29907.5" r="39.3701" /> 
<circle cx="63575.6" cy="41649.3" r="39.3701" /> 
<circle cx="68235.6" cy="44872.1" r="39.3701" /> 
<circle cx="74851.2" cy="28780.7" r="39.3701" /> 
<circle cx="73111.2" cy="36747.2" r="39.3701" /> 
<circle cx="76749.9" cy="27450" r="39.3701" /> 
<circle cx="66197.8" cy="30715" r="39.3701" /> 
<circle cx="77491.2" cy="37086.5" r="39.3701" /> 
<circle cx="68780.2" cy="28396.2" r="39.3701" /> 
<circle cx="74393.7" cy="39639.5" r="39.3701" /> 
<circle cx="76674.1" cy="31640" r="39.3701" /> 
<circle cx="69951" cy="42160.2" r="39.3701" /> 
<circle cx="65471.7" cy="27447.7" r="39.3701" /> 
<circle cx="68306.7" cy="50081.9" r="39.3701" /> 
<circle cx="65893.1" cy="40921.4" r="39.3701" /> 
<circle cx="70122.8" cy="37233.1" r="39.3701" /> 
<circle cx="71603.9" cy="28706.1" r="39.3701" /> 
<circle cx="72279.3" cy="28379" r="39.3701" /> 
<circle cx="76417.2" cy="32600" r="39.3701" /> 
<circle cx="73376" cy="41169.7" r="39.3701" /> 
<circle cx="69128" cy="32802.1" r="39.3701" /> 
<circle cx="70513.7" cy="33042.9" r="39.3701" /> 
<circle cx="70461.9" cy="35515.1" r="39.3701" /> 
<circle cx="76375.3" cy="33492.3" r="39.3701" /> 
<circle cx="68256" cy="39517" r="39.3701" /> 
<circle cx="71720" cy="39530.2" r="39.3701" /> 
<circle cx="69259.5" cy="44555.5" r="39.3701" /> 
<circle cx="68008.7" cy="42698.8" r="39.3701" /> 
<circle cx="72071.5" cy="47780.1" r="39.3701" /> 
<circle cx="60590.6" cy="30393.7" r="39.3701" /> 
<circle cx="62401.6" cy="45708.7" r="39.3701" /> 
<circle cx="61968.5" cy="30472.4" r="39.3701" /> 
<circle cx="67173.5" cy="35059.1" r="39.3701" /> 
<circle cx="74449.9" cy="37317.4" r="39.3701" /> 
<circle cx="75293.1" cy="37220.1" r="39.3701" /> 
<circle cx="74075.1" cy="29950.4" r="39.3701" /> 
<circle cx="71171.1" cy="42874.1" r="39.3701" /> 
<circle cx="69144.3" cy="40188" r="39.3701" /> 
<circle cx="66441.5" cy="42972.3" r="39.3701" /> 
<circle cx="69224.4" cy="43582.7" r="39.3701" /> 
<circle cx="70224.4" cy="43582.7" r="39.3701" /> 
<circle cx="71901.6" cy="26574.8" r="39.3701" /> 
<circle cx="72901.6" cy="26574.8" r="39.3701" /> 
<circle cx="77795.3" cy="41641.7" r="39.3701" /> 
<circle cx="77795.3" cy="40641.7" r="39.3701" /> 
<circle cx="75078.7" cy="41641.7" r="39.3701" /> 
<circle cx="75078.7" cy="40641.7" r="39.3701" /> 
<circle cx="64330.7" cy="41641.7" r="39.3701" /> 
<circle cx="64330.7" cy="40641.7" r="39.3701" /> 
<circle cx="61653.5" cy="41641.7" r="39.3701" /> 
<circle cx="61653.5" cy="40641.7" r="39.3701" /> 
<circle cx="71417.3" cy="49318.9" r="39.3701" /> 
<circle cx="71417.3" cy="48318.9" r="39.3701" /> 
<circle cx="69224.4" cy="53267.7" r="39.3701" /> 
<circle cx="70224.4" cy="53267.7" r="39.3701" /> 
<circle cx="69224.4" cy="50866.1" r="39.3701" /> 
<circle cx="70224.4" cy="50866.1" r="39.3701" /> 
<circle cx="75708.7" cy="43374" r="39.3701" /> 
<circle cx="75708.7" cy="42374" r="39.3701" /> 
<circle cx="73582.7" cy="44673.2" r="39.3701" /> 
<circle cx="73582.7" cy="43673.2" r="39.3701" /> 
<circle cx="72086.6" cy="46681.1" r="39.3701" /> 
<circle cx="72086.6" cy="45681.1" r="39.3701" /> 
<circle cx="69224.4" cy="48425.2" r="39.3701" /> 
<circle cx="70224.4" cy="48425.2" r="39.3701" /> 
<circle cx="69224.4" cy="45984.3" r="39.3701" /> 
<circle cx="70224.4" cy="45984.3" r="39.3701" /> 
<circle cx="69224.4" cy="41141.7" r="39.3701" /> 
<circle cx="70224.4" cy="41141.7" r="39.3701" /> 
<circle cx="69224.4" cy="26574.8" r="39.3701" /> 
<circle cx="70224.4" cy="26574.8" r="39.3701" /> 
<circle cx="66507.9" cy="26574.8" r="39.3701" /> 
<circle cx="67507.9" cy="26574.8" r="39.3701" /> 
<circle cx="69224.4" cy="29015.7" r="39.3701" /> 
<circle cx="70224.4" cy="29015.7" r="39.3701" /> 
<circle cx="77295.3" cy="26574.8" r="39.3701" /> 
<circle cx="78295.3" cy="26574.8" r="39.3701" /> 
<circle cx="74578.7" cy="26574.8" r="39.3701" /> 
<circle cx="75578.7" cy="26574.8" r="39.3701" /> 
<circle cx="63830.7" cy="26574.8" r="39.3701" /> 
<circle cx="64830.7" cy="26574.8" r="39.3701" /> 
<circle cx="61153.5" cy="26574.8" r="39.3701" /> 
<circle cx="62153.5" cy="26574.8" r="39.3701" /> 
<circle cx="68031.5" cy="34358.3" r="39.3701" /> 
<circle cx="68031.5" cy="33358.3" r="39.3701" /> 
<circle cx="69224.4" cy="38700.8" r="39.3701" /> 
<circle cx="70224.4" cy="38700.8" r="39.3701" /> 
<circle cx="69224.4" cy="36299.2" r="39.3701" /> 
<circle cx="70224.4" cy="36299.2" r="39.3701" /> 
<circle cx="63240.2" cy="28307.1" r="39.3701" /> 
<circle cx="64240.2" cy="28307.1" r="39.3701" /> 
<circle cx="65366.1" cy="29606.3" r="39.3701" /> 
<circle cx="66366.1" cy="29606.3" r="39.3701" /> 
<circle cx="66862.2" cy="31614.2" r="39.3701" /> 
<circle cx="67862.2" cy="31614.2" r="39.3701" /> 
<circle cx="69224.4" cy="33858.3" r="39.3701" /> 
<circle cx="70224.4" cy="33858.3" r="39.3701" /> 
<circle cx="69224.4" cy="31417.3" r="39.3701" /> 
<circle cx="70224.4" cy="31417.3" r="39.3701" /> 
<circle cx="72401.6" cy="41641.7" r="39.3701" /> 
<circle cx="72401.6" cy="40641.7" r="39.3701" /> 
<circle cx="67007.9" cy="41641.7" r="39.3701" /> 
<circle cx="67007.9" cy="40641.7" r="39.3701" /> 
</g> 
</svg>
